<svg xmlns="http://www.w3.org/2000/svg" version="1.1" xmlns:xlink="http://www.w3.org/1999/xlink"
    width="512" height="512" x="0" y="0" viewBox="0 0 682.667 682.667"
    style="enable-background:new 0 0 512 512" xml:space="preserve" class=""><g><defs stroke-width="16" style="stroke-width: 16;"><clipPath id="a" clipPathUnits="userSpaceOnUse" stroke-width="16" style="stroke-width: 16;"><path d="M0 512h512V0H0Z" fill="#000000" opacity="1" data-original="#000000" stroke-width="16" style="stroke-width: 16;"></path></clipPath></defs><g
    clip-path="url(#a)" transform="matrix(1.33333 0 0 -1.33333 0 682.667)" stroke-width="16"
    style="stroke-width: 16;"><path d="M0 0h-210l-100-100v-292c0-16.568 13.432-30 30-30H0c16.568 0 30 13.432 30 30v362C30-13.432 16.568 0 0 0Z" style="stroke-width: 16; stroke-linecap: round; stroke-linejoin: round; stroke-miterlimit: 10; stroke-dasharray: none; stroke-opacity: 1;" transform="translate(366 497)" fill="none" stroke="#000000" stroke-width="16" stroke-linecap="round" stroke-linejoin="round" stroke-miterlimit="10" stroke-dasharray="none" stroke-opacity="1" data-original="#000000"></path>
    <path d="m0 0-100-100H0Z"
        style="stroke-width: 16; stroke-linecap: round; stroke-linejoin: round; stroke-miterlimit: 10; stroke-dasharray: none; stroke-opacity: 1;"
        transform="translate(156 497)" fill="none" stroke="#000000" stroke-width="16"
        stroke-linecap="round" stroke-linejoin="round" stroke-miterlimit="10"
        stroke-dasharray="none" stroke-opacity="1" data-original="#000000"></path>
    <path
        d="M0 0h-30v-330c0-16.568-13.432-30-30-30h-250v-30c0-16.568 13.432-30 30-30H0c16.568 0 30 13.432 30 30v360C30-13.432 16.568 0 0 0Z"
        style="stroke-width: 16; stroke-linecap: round; stroke-linejoin: round; stroke-miterlimit: 10; stroke-dasharray: none; stroke-opacity: 1;"
        transform="translate(426 435)" fill="none" stroke="#000000" stroke-width="16"
        stroke-linecap="round" stroke-linejoin="round" stroke-miterlimit="10"
        stroke-dasharray="none" stroke-opacity="1" data-original="#000000"></path>
    <path d="M0 0v0c27.614 0 50-22.386 50-50v-20H-50v20C-50-22.386-27.614 0 0 0z"
        style="stroke-width: 16; stroke-linecap: round; stroke-linejoin: round; stroke-miterlimit: 10; stroke-dasharray: none; stroke-opacity: 1;"
        transform="translate(286 385)" fill="none" stroke="#000000" stroke-width="16"
        stroke-linecap="round" stroke-linejoin="round" stroke-miterlimit="10"
        stroke-dasharray="none" stroke-opacity="1" data-original="#000000"></path>
    <path
        d="M0 0c0-16.568 13.432-30 30-30 16.568 0 30 13.432 30 30 0 16.568-13.432 30-30 30C13.432 30 0 16.568 0 0Z"
        style="stroke-width: 16; stroke-linecap: round; stroke-linejoin: round; stroke-miterlimit: 10; stroke-dasharray: none; stroke-opacity: 1;"
        transform="translate(256 415)" fill="none" stroke="#000000" stroke-width="16"
        stroke-linecap="round" stroke-linejoin="round" stroke-miterlimit="10"
        stroke-dasharray="none" stroke-opacity="1" data-original="#000000"></path>
    <path d="M0 0h-70"
        style="stroke-width: 16; stroke-linecap: round; stroke-linejoin: round; stroke-miterlimit: 10; stroke-dasharray: none; stroke-opacity: 1;"
        transform="translate(186 315)" fill="none" stroke="#000000" stroke-width="16"
        stroke-linecap="round" stroke-linejoin="round" stroke-miterlimit="10"
        stroke-dasharray="none" stroke-opacity="1" data-original="#000000"></path>
    <path d="M0 0h-220"
        style="stroke-width: 16; stroke-linecap: round; stroke-linejoin: round; stroke-miterlimit: 10; stroke-dasharray: none; stroke-opacity: 1;"
        transform="translate(336 255)" fill="none" stroke="#000000" stroke-width="16"
        stroke-linecap="round" stroke-linejoin="round" stroke-miterlimit="10"
        stroke-dasharray="none" stroke-opacity="1" data-original="#000000"></path>
    <path d="M0 0h-220"
        style="stroke-width: 16; stroke-linecap: round; stroke-linejoin: round; stroke-miterlimit: 10; stroke-dasharray: none; stroke-opacity: 1;"
        transform="translate(336 195)" fill="none" stroke="#000000" stroke-width="16"
        stroke-linecap="round" stroke-linejoin="round" stroke-miterlimit="10"
        stroke-dasharray="none" stroke-opacity="1" data-original="#000000"></path>
    <path d="M0 0h-220"
        style="stroke-width: 16; stroke-linecap: round; stroke-linejoin: round; stroke-miterlimit: 10; stroke-dasharray: none; stroke-opacity: 1;"
        transform="translate(336 135)" fill="none" stroke="#000000" stroke-width="16"
        stroke-linecap="round" stroke-linejoin="round" stroke-miterlimit="10"
        stroke-dasharray="none" stroke-opacity="1" data-original="#000000"></path></g></g></svg>