<svg xmlns="http://www.w3.org/2000/svg" version="1.1" xmlns:xlink="http://www.w3.org/1999/xlink" width="512" height="512" x="0" y="0" viewBox="0 0 682.667 682.667" style="enable-background:new 0 0 512 512" xml:space="preserve"><g><defs stroke-width="18" style="stroke-width: 18;"><clipPath id="a" clipPathUnits="userSpaceOnUse" stroke-width="18" style="stroke-width: 18;"><path d="M0 512h512V0H0Z" fill="#000000" opacity="1" data-original="#000000" stroke-width="18" style="stroke-width: 18;"></path></clipPath></defs><g clip-path="url(#a)" transform="matrix(1.33333 0 0 -1.33333 0 682.667)" stroke-width="18" style="stroke-width: 18;"><path d="M0 0v0h348.313c-21.685 0-39.264 17.58-39.264 39.265v10.452c0 7.971-6.462 14.432-14.433 14.432H-24.833c-7.971 0-14.432-6.461-14.432-14.432V39.265C-39.265 17.58-21.686 0 0 0Z" style="stroke-width: 18; stroke-linecap: round; stroke-linejoin: round; stroke-miterlimit: 10; stroke-dasharray: none; stroke-opacity: 1;" transform="translate(50.389 7.5)" fill="none" stroke="#000000" stroke-width="18" stroke-linecap="round" stroke-linejoin="round" stroke-miterlimit="10" stroke-dasharray="none" stroke-opacity="1" data-original="#000000"></path><path d="M0 0v45.907c0 16.998-13.779 30.778-30.778 30.778h-326.034c-16.999 0-30.778-13.78-30.778-30.778v-402.073" style="stroke-width: 18; stroke-linecap: round; stroke-linejoin: round; stroke-miterlimit: 10; stroke-dasharray: none; stroke-opacity: 1;" transform="translate(435.795 427.815)" fill="none" stroke="#000000" stroke-width="18" stroke-linecap="round" stroke-linejoin="round" stroke-miterlimit="10" stroke-dasharray="none" stroke-opacity="1" data-original="#000000"></path><path d="M0 0c20.898.345 37.735 17.382 37.735 38.362v33.252" style="stroke-width: 18; stroke-linecap: round; stroke-linejoin: round; stroke-miterlimit: 10; stroke-dasharray: none; stroke-opacity: 1;" transform="translate(398.06 7.516)" fill="none" stroke="#000000" stroke-width="18" stroke-linecap="round" stroke-linejoin="round" stroke-miterlimit="10" stroke-dasharray="none" stroke-opacity="1" data-original="#000000"></path><path d="M0 0h155.116" style="stroke-width: 18; stroke-linecap: round; stroke-linejoin: round; stroke-miterlimit: 10; stroke-dasharray: none; stroke-opacity: 1;" transform="translate(96.688 382.132)" fill="none" stroke="#000000" stroke-width="18" stroke-linecap="round" stroke-linejoin="round" stroke-miterlimit="10" stroke-dasharray="none" stroke-opacity="1" data-original="#000000"></path><path d="M0 0h155.116" style="stroke-width: 18; stroke-linecap: round; stroke-linejoin: round; stroke-miterlimit: 10; stroke-dasharray: none; stroke-opacity: 1;" transform="translate(96.688 322.209)" fill="none" stroke="#000000" stroke-width="18" stroke-linecap="round" stroke-linejoin="round" stroke-miterlimit="10" stroke-dasharray="none" stroke-opacity="1" data-original="#000000"></path><path d="M0 0h155.116" style="stroke-width: 18; stroke-linecap: round; stroke-linejoin: round; stroke-miterlimit: 10; stroke-dasharray: none; stroke-opacity: 1;" transform="translate(96.688 262.286)" fill="none" stroke="#000000" stroke-width="18" stroke-linecap="round" stroke-linejoin="round" stroke-miterlimit="10" stroke-dasharray="none" stroke-opacity="1" data-original="#000000"></path><path d="M0 0h155.116" style="stroke-width: 18; stroke-linecap: round; stroke-linejoin: round; stroke-miterlimit: 10; stroke-dasharray: none; stroke-opacity: 1;" transform="translate(96.688 202.363)" fill="none" stroke="#000000" stroke-width="18" stroke-linecap="round" stroke-linejoin="round" stroke-miterlimit="10" stroke-dasharray="none" stroke-opacity="1" data-original="#000000"></path><path d="M0 0v0c4.926-7.665 14.871-10.33 22.969-6.154 11.438 5.897 25.142-2.015 25.755-14.87.432-9.101 7.713-16.381 16.814-16.814 12.854-.612 20.767-14.316 14.869-25.754-4.176-8.098-1.511-18.044 6.155-22.97 10.826-6.956 10.826-22.781 0-29.738-7.666-4.926-10.331-14.87-6.155-22.969 5.898-11.438-2.015-25.142-14.869-25.754-9.101-.433-16.382-7.714-16.814-16.814-.613-12.855-14.317-20.767-25.755-14.87-8.098 4.176-18.043 1.511-22.969-6.154-6.957-10.826-22.781-10.826-29.738 0-4.926 7.665-14.871 10.33-22.969 6.154-11.439-5.897-25.143 2.015-25.755 14.87-.433 9.1-7.713 16.381-16.814 16.814-12.854.612-20.767 14.316-14.87 25.754 4.176 8.099 1.511 18.043-6.154 22.969-10.826 6.957-10.826 22.782 0 29.738 7.665 4.926 10.33 14.872 6.154 22.97-5.897 11.438 2.016 25.142 14.87 25.754 9.101.433 16.381 7.713 16.814 16.814.612 12.855 14.316 20.767 25.755 14.87C-44.609-10.33-34.664-7.665-29.738 0-22.781 10.826-6.957 10.826 0 0Z" style="stroke-width: 18; stroke-linecap: round; stroke-linejoin: round; stroke-miterlimit: 10; stroke-dasharray: none; stroke-opacity: 1;" transform="translate(406.195 389.55)" fill="none" stroke="#000000" stroke-width="18" stroke-linecap="round" stroke-linejoin="round" stroke-miterlimit="10" stroke-dasharray="none" stroke-opacity="1" data-original="#000000"></path><path d="M0 0c0-35.688-28.931-64.618-64.618-64.618-35.688 0-64.618 28.93-64.618 64.618 0 35.688 28.93 64.618 64.618 64.618C-28.931 64.618 0 35.688 0 0Z" style="stroke-width: 18; stroke-linecap: round; stroke-linejoin: round; stroke-miterlimit: 10; stroke-dasharray: none; stroke-opacity: 1;" transform="translate(455.944 288.12)" fill="none" stroke="#000000" stroke-width="18" stroke-linecap="round" stroke-linejoin="round" stroke-miterlimit="10" stroke-dasharray="none" stroke-opacity="1" data-original="#000000"></path><path d="M0 0v-72.323c0-3.298 3.584-5.346 6.426-3.672l35.855 21.126a4.263 4.263 0 0 0 4.326 0l35.856-21.126c2.842-1.674 6.426.374 6.426 3.672V0" style="stroke-width: 18; stroke-linecap: round; stroke-linejoin: round; stroke-miterlimit: 10; stroke-dasharray: none; stroke-opacity: 1;" transform="translate(346.882 190.922)" fill="none" stroke="#000000" stroke-width="18" stroke-linecap="round" stroke-linejoin="round" stroke-miterlimit="10" stroke-dasharray="none" stroke-opacity="1" data-original="#000000"></path></g></g></svg>