<svg xmlns="http://www.w3.org/2000/svg" version="1.1" xmlns:xlink="http://www.w3.org/1999/xlink" width="512" height="512" x="0" y="0" viewBox="0 0 512.013 512.013" style="enable-background:new 0 0 512 512" xml:space="preserve"><g><path d="M256.006 144.706c37.105 0 67.35-30.245 67.35-67.35s-30.245-67.35-67.35-67.35-67.35 30.245-67.35 67.35 30.246 67.35 67.35 67.35h0z" style="stroke-width: 22; stroke-linecap: round; stroke-linejoin: round; stroke-miterlimit: 10;" fill="none" stroke="#000000" stroke-width="22" stroke-linecap="round" stroke-linejoin="round" stroke-miterlimit="10" data-original="#000000"></path><path d="M300.736 127.699c37.87 16.157 64.6 53.801 64.6 97.397v29.536m-218.66 0v-29.536c0-43.596 26.73-81.239 64.6-97.397M446.349 254.632v-24.519c0-36.198-22.167-67.463-53.602-80.843" style="stroke-width: 22; stroke-linecap: round; stroke-linejoin: round; stroke-miterlimit: 10;" fill="none" stroke="#000000" stroke-width="22" stroke-linecap="round" stroke-linejoin="round" stroke-miterlimit="10" data-original="#000000"></path><path d="M344.531 162.281a56.87 56.87 0 0 0 11.055 1.106c30.897 0 55.927-25.029 55.927-55.926 0-30.869-25.029-55.898-55.927-55.898-12.699 0-24.406 4.224-33.788 11.367M167.482 162.281a56.938 56.938 0 0 1-11.083 1.106c-30.869 0-55.898-25.029-55.898-55.926 0-30.869 25.029-55.898 55.898-55.898a55.715 55.715 0 0 1 33.817 11.367" style="stroke-width: 22; stroke-linecap: round; stroke-linejoin: round; stroke-miterlimit: 10;" fill="none" stroke="#000000" stroke-width="22" stroke-linecap="round" stroke-linejoin="round" stroke-miterlimit="10" data-original="#000000"></path><path d="M65.664 254.632v-24.519c0-36.198 22.167-67.463 53.602-80.843M467.297 254.632v72.14h-32.569a181.42 181.42 0 0 1-26.844 64.77l23.045 23.074-51.023 50.994-23.045-23.045c-19.332 12.869-41.243 22.138-64.77 26.872v32.569h-72.169v-32.569c-23.555-4.734-45.438-14.003-64.77-26.872l-23.045 23.045-51.023-50.994 23.045-23.074a181.427 181.427 0 0 1-26.844-64.77H44.716v-72.14h422.581z" style="stroke-width: 22; stroke-linecap: round; stroke-linejoin: round; stroke-miterlimit: 10;" fill="none" stroke="#000000" stroke-width="22" stroke-linecap="round" stroke-linejoin="round" stroke-miterlimit="10" data-original="#000000"></path><path d="M345.268 254.632a96.037 96.037 0 0 1 7.001 36.084c0 53.149-43.114 96.234-96.263 96.234-53.177 0-96.263-43.086-96.263-96.234a96.033 96.033 0 0 1 7.001-36.084" style="stroke-width: 22; stroke-linecap: round; stroke-linejoin: round; stroke-miterlimit: 10;" fill="none" stroke="#000000" stroke-width="22" stroke-linecap="round" stroke-linejoin="round" stroke-miterlimit="10" data-original="#000000"></path></g></svg>