<svg xmlns="http://www.w3.org/2000/svg" version="1.1" xmlns:xlink="http://www.w3.org/1999/xlink"
    width="512" height="512" x="0" y="0" viewBox="0 0 512 512"
    style="enable-background:new 0 0 512 512" xml:space="preserve"><g><path d="M370.119 492H80.394c-33.137 0-60-26.863-60-60V80c0-33.137 26.863-60 60-60h224.259c33.137 0 60 26.863 60 60v166.83" style="stroke-width: 22; stroke-linecap: round; stroke-linejoin: round; stroke-miterlimit: 10;" fill="none" stroke="#000000" stroke-width="22" stroke-linecap="round" stroke-linejoin="round" stroke-miterlimit="10" data-original="#000000"></path><path
    d="m102.836 133.05 19.695 19.696 31.297-39.238M211.948 152.746h70.262M102.836 255.924l19.695 19.695 31.297-39.238M211.948 275.619h82.306M102.836 378.797l19.695 19.695 31.297-39.238M211.948 398.492h36.683M370.119 322.404v48.108l22.988 22.989"
    style="stroke-width: 22; stroke-linecap: round; stroke-linejoin: round; stroke-miterlimit: 10;"
    fill="none" stroke="#000000" stroke-width="22" stroke-linecap="round" stroke-linejoin="round"
    stroke-miterlimit="10" data-original="#000000"></path><path
    d="M484.632 411.181c4.516-12.715 6.975-26.405 6.975-40.669 0-67.096-54.392-121.488-121.488-121.488s-121.488 54.392-121.488 121.488S303.023 492 370.119 492c15.981 0 31.241-3.086 45.217-8.694"
    style="stroke-width: 22; stroke-linecap: round; stroke-linejoin: round; stroke-miterlimit: 10;"
    fill="none" stroke="#000000" stroke-width="22" stroke-linecap="round" stroke-linejoin="round"
    stroke-miterlimit="10" data-original="#000000"></path></g></svg>