<svg xmlns="http://www.w3.org/2000/svg" version="1.1" xmlns:xlink="http://www.w3.org/1999/xlink" width="512" height="512" x="0" y="0" viewBox="0 0 512 512" style="enable-background:new 0 0 512 512" xml:space="preserve" class=""><g><path d="M132.93 367.519V502m246.14-134.481V502M364.617 176.455h14.564c13.169 0 23.967 10.77 23.967 23.967 0 13.169-10.798 23.967-23.967 23.967h-15.038M147.383 176.455h-14.564c-13.169 0-23.967 10.77-23.967 23.967 0 13.169 10.798 23.967 23.967 23.967h15.038" style="stroke-width: 22; stroke-linecap: round; stroke-linejoin: round; stroke-miterlimit: 10;" fill="none" stroke="#000000" stroke-width="22" stroke-linecap="round" stroke-linejoin="round" stroke-miterlimit="10" data-original="#000000" class=""></path><path d="M147.383 176.455v37.554c0 59.763 48.882 108.645 108.617 108.645s108.617-48.882 108.617-108.645v-37.554" style="stroke-width: 22; stroke-linecap: round; stroke-linejoin: round; stroke-miterlimit: 10;" fill="none" stroke="#000000" stroke-width="22" stroke-linecap="round" stroke-linejoin="round" stroke-miterlimit="10" data-original="#000000" class=""></path><path d="M297.377 314.424v27.789l70.561 21.372c34.374 10.407 65.204 34.401 65.204 91.933V502H78.859v-46.482c0-57.531 30.802-81.526 65.204-91.933l70.561-21.372v-27.789" style="stroke-width: 22; stroke-linecap: round; stroke-linejoin: round; stroke-miterlimit: 10;" fill="none" stroke="#000000" stroke-width="22" stroke-linecap="round" stroke-linejoin="round" stroke-miterlimit="10" data-original="#000000" class=""></path><path d="M177.181 353.569v80.437h157.638v-80.437" style="stroke-width: 22; stroke-linecap: round; stroke-linejoin: round; stroke-miterlimit: 10;" fill="none" stroke="#000000" stroke-width="22" stroke-linecap="round" stroke-linejoin="round" stroke-miterlimit="10" data-original="#000000" class=""></path><path d="M297.377 342.213v4.436c0 22.739-18.638 41.377-41.377 41.377-22.767 0-41.377-18.638-41.377-41.377v-4.436M140.101 133.628c0-56.694 40.707-103.874 94.499-113.918V10h42.8v9.709c53.792 10.044 94.5 57.224 94.5 113.918M379.181 133.628c5.496 0 10.016 4.52 10.016 10.016v22.767c0 5.524-4.52 10.044-10.016 10.044H132.819c-5.496 0-10.016-4.52-10.016-10.044v-22.767c0-5.496 4.52-10.016 10.016-10.016h246.362z" style="stroke-width: 22; stroke-linecap: round; stroke-linejoin: round; stroke-miterlimit: 10;" fill="none" stroke="#000000" stroke-width="22" stroke-linecap="round" stroke-linejoin="round" stroke-miterlimit="10" data-original="#000000" class=""></path><path d="M234.6 84.411V10h42.8v74.411" style="stroke-width: 22; stroke-linecap: round; stroke-linejoin: round; stroke-miterlimit: 10;" fill="none" stroke="#000000" stroke-width="22" stroke-linecap="round" stroke-linejoin="round" stroke-miterlimit="10" data-original="#000000" class=""></path></g></svg>