<svg width="34" height="34" viewBox="0 0 34 34" fill="none" xmlns="http://www.w3.org/2000/svg">
    <path
        d="M11.9 6.5074C12.1607 6.03812 12.5422 5.64709 13.0049 5.37484C13.4675 5.10258 13.9946 4.959 14.5315 4.95898H19.4685C20.0054 4.959 20.5325 5.10258 20.9951 5.37484C21.4578 5.64709 21.8393 6.03812 22.1 6.5074L23.0109 8.14648H25.6771C26.7573 8.14648 27.7933 8.57559 28.5571 9.33941C29.3209 10.1032 29.75 11.1392 29.75 12.2194V17.0318C28.2702 16.0838 26.5491 15.5813 24.7917 15.584C23.9551 15.584 23.1441 15.6959 22.3734 15.9049C22.0588 14.9688 21.5049 14.1312 20.7668 13.4751C20.0287 12.819 19.132 12.3672 18.1654 12.1645C17.1989 11.9617 16.1962 12.0151 15.2567 12.3193C14.3171 12.6235 13.4734 13.1679 12.8091 13.8986C12.1448 14.6294 11.683 15.521 11.4695 16.4852C11.256 17.4494 11.2981 18.4526 11.5918 19.3955C11.8854 20.3384 12.4204 21.1881 13.1437 21.8606C13.8669 22.533 14.7533 23.0047 15.7151 23.229C15.4221 24.9508 15.621 26.7202 16.2888 28.334H8.32292C7.24271 28.334 6.20675 27.9049 5.44293 27.1411C4.67911 26.3772 4.25 25.3413 4.25 24.2611V12.2194C4.25 11.1392 4.67911 10.1032 5.44293 9.33941C6.20675 8.57559 7.24271 8.14648 8.32292 8.14648H10.9898L11.9 6.5074ZM17 13.8132C16.037 13.8118 15.1077 14.1671 14.3913 14.8106C13.6749 15.4541 13.2222 16.3401 13.1205 17.2977C13.0188 18.2553 13.2754 19.2166 13.8407 19.9961C14.4061 20.7757 15.2401 21.3182 16.1819 21.5191C17.0118 19.3459 18.6306 17.5655 20.7152 16.5332C20.4653 15.7438 19.9705 15.0546 19.3024 14.5656C18.6344 14.0765 17.8279 13.8129 17 13.8132ZM24.7917 32.584C29.0948 32.584 32.5833 29.0954 32.5833 24.7923C32.5833 20.4892 29.0948 17.0007 24.7917 17.0007C20.4885 17.0007 17 20.4892 17 24.7923C17 29.0954 20.4885 32.584 24.7917 32.584ZM24.7917 19.834C24.9795 19.834 25.1597 19.9086 25.2925 20.0414C25.4254 20.1743 25.5 20.3545 25.5 20.5423V24.084H29.0417C29.2295 24.084 29.4097 24.1586 29.5425 24.2914C29.6754 24.4243 29.75 24.6045 29.75 24.7923C29.75 24.9802 29.6754 25.1603 29.5425 25.2932C29.4097 25.426 29.2295 25.5007 29.0417 25.5007H25.5V29.0423C25.5 29.2302 25.4254 29.4103 25.2925 29.5432C25.1597 29.676 24.9795 29.7507 24.7917 29.7507C24.6038 29.7507 24.4236 29.676 24.2908 29.5432C24.158 29.4103 24.0833 29.2302 24.0833 29.0423V25.5007H20.5417C20.3538 25.5007 20.1736 25.426 20.0408 25.2932C19.908 25.1603 19.8333 24.9802 19.8333 24.7923C19.8333 24.6045 19.908 24.4243 20.0408 24.2914C20.1736 24.1586 20.3538 24.084 20.5417 24.084H24.0833V20.5423C24.0833 20.3545 24.158 20.1743 24.2908 20.0414C24.4236 19.9086 24.6038 19.834 24.7917 19.834Z"
        fill="#6A5BFC" />
</svg>
