<svg width="19" height="17" viewBox="0 0 19 17" fill="none" xmlns="http://www.w3.org/2000/svg">
<path d="M9.08331 11.584C10.464 11.584 11.5833 10.4647 11.5833 9.08398C11.5833 7.70327 10.464 6.58398 9.08331 6.58398C7.7026 6.58398 6.58331 7.70327 6.58331 9.08398C6.58331 10.4647 7.7026 11.584 9.08331 11.584Z" stroke="#007AFF" stroke-width="1.5"/>
<path d="M7.23167 15.75H10.935C13.5358 15.75 14.8367 15.75 15.7708 15.1375C16.174 14.8735 16.5212 14.5325 16.7925 14.1342C17.4167 13.2175 17.4167 11.94 17.4167 9.38671C17.4167 6.83337 17.4167 5.55587 16.7925 4.63921C16.5212 4.24087 16.174 3.89992 15.7708 3.63587C15.1708 3.24171 14.4192 3.10087 13.2683 3.05087C12.7192 3.05087 12.2467 2.64254 12.1392 2.11337C12.057 1.72576 11.8436 1.3784 11.5349 1.13C11.2262 0.881593 10.8412 0.747379 10.445 0.750039H7.72167C6.89833 0.750039 6.18917 1.32087 6.0275 2.11337C5.92 2.64254 5.4475 3.05087 4.89833 3.05087C3.74833 3.10087 2.99667 3.24254 2.39583 3.63587C1.99295 3.90001 1.64606 4.24095 1.375 4.63921C0.75 5.55587 0.75 6.83254 0.75 9.38671C0.75 11.9409 0.75 13.2167 1.37417 14.1342C1.64417 14.5309 1.99083 14.8717 2.39583 15.1375C3.33 15.75 4.63083 15.75 7.23167 15.75Z" stroke="#007AFF" stroke-width="1.5"/>
<path d="M14.9166 6.58398H14.0833" stroke="#007AFF" stroke-width="1.5" stroke-linecap="round"/>
</svg>
