<svg fill="none" height="24" viewBox="0 0 24 24" width="24" xmlns="http://www.w3.org/2000/svg"><path clip-rule="evenodd" d="M10.2361 3C9.09975 3 8.06096 3.64201 7.55279 4.65836L7.15836 5.44721C6.98897 5.786 6.6427 6 6.26393 6H5C3.34315 6 2 7.34315 2 9V18C2 19.6569 3.34315 21 5 21H19C20.6569 21 22 19.6569 22 18V9C22 7.34315 20.6569 6 19 6H17.7361C17.3573 6 17.011 5.786 16.8416 5.44721L16.4472 4.65836C15.939 3.64201 14.9002 3 13.7639 3H10.2361ZM11 11V8H13V11H16V13H13V16H11V13H8V11H11Z" fill="black" fill-rule="evenodd"></path></svg>