<svg width="30" height="30" viewBox="0 0 30 30" fill="none" xmlns="http://www.w3.org/2000/svg">
    <path
        d="M7.02 25C6.44417 25 5.96375 24.8075 5.57875 24.4225C5.19375 24.0375 5.00083 23.5567 5 22.98V7.02001C5 6.44418 5.19292 5.96376 5.57875 5.57876C5.96458 5.19376 6.445 5.00084 7.02 5.00001H15.145C15.3217 5.00001 15.47 5.06001 15.59 5.18001C15.71 5.30001 15.77 5.44876 15.77 5.62626C15.77 5.80376 15.71 5.95209 15.59 6.07126C15.47 6.19043 15.3217 6.25001 15.145 6.25001H7.02C6.795 6.25001 6.61042 6.32209 6.46625 6.46626C6.32208 6.61042 6.25 6.79501 6.25 7.02001V22.9813C6.25 23.2054 6.32208 23.3896 6.46625 23.5338C6.61042 23.6779 6.795 23.75 7.02 23.75H22.9813C23.2054 23.75 23.3896 23.6779 23.5337 23.5338C23.6779 23.3896 23.75 23.205 23.75 22.98V14.855C23.75 14.6783 23.81 14.53 23.93 14.41C24.05 14.29 24.1987 14.23 24.3762 14.23C24.5537 14.23 24.7021 14.29 24.8213 14.41C24.9404 14.53 25 14.6783 25 14.855V22.98C25 23.5558 24.8075 24.0363 24.4225 24.4213C24.0375 24.8063 23.5567 24.9992 22.98 25H7.02ZM8.46125 20.48H21.5388L17.5 15.0963L13.75 19.8325L11.25 16.8275L8.46125 20.48ZM21.25 8.75001H19.375C19.1975 8.75001 19.0492 8.69001 18.93 8.57001C18.8108 8.45001 18.7508 8.30126 18.75 8.12376C18.7492 7.94626 18.8092 7.79793 18.93 7.67876C19.0508 7.55959 19.1992 7.50001 19.375 7.50001H21.25V5.62501C21.25 5.44751 21.31 5.29918 21.43 5.18001C21.55 5.06084 21.6987 5.00084 21.8762 5.00001C22.0537 4.99918 22.2021 5.05918 22.3213 5.18001C22.4404 5.30084 22.5 5.44918 22.5 5.62501V7.50001H24.375C24.5525 7.50001 24.7008 7.56001 24.82 7.68001C24.9392 7.80001 24.9992 7.94876 25 8.12626C25.0008 8.30376 24.9408 8.45209 24.82 8.57126C24.6992 8.69043 24.5508 8.75001 24.375 8.75001H22.5V10.625C22.5 10.8025 22.44 10.9508 22.32 11.07C22.2 11.1892 22.0513 11.2492 21.8738 11.25C21.6963 11.2508 21.5479 11.1908 21.4287 11.07C21.3096 10.9492 21.25 10.8008 21.25 10.625V8.75001Z"
        fill="#757575" />
</svg>
