<svg
    xmlns="http://www.w3.org/2000/svg"
    viewBox="0 0 100 100"
    id="vector">
    <path
        id="path"
        d="M 82.436 37.723 L 51.679 14.057 C 50.691 13.297 49.31 13.297 48.322 14.057 L 17.564 37.723 C 16.898 38.235 16.509 39.022 16.509 39.858 L 16.509 77.047 C 16.509 82.267 20.801 86.513 26.077 86.513 L 37.014 86.513 L 37.014 50 C 37.014 48.506 38.237 47.296 39.746 47.296 L 60.251 47.296 C 61.76 47.296 62.984 48.506 62.984 50 L 62.984 86.513 L 73.921 86.513 C 79.197 86.513 83.489 82.267 83.489 77.047 L 83.489 39.857 C 83.49 39.021 83.1 38.234 82.436 37.723 Z"
        fill="#0065ff"/>
</svg>
