<svg
    xmlns="http://www.w3.org/2000/svg"
    viewBox="0 0 328 305"
    id="vector">
    <path
        id="path"
        d="M 112.6 27.2 C 140.1 27.5 164.1 36.7 184.4 55.3 C 188.9 59.4 189.5 63.7 186.3 67.4 C 183.1 70.9 178.5 70.6 174.1 66.7 C 147.8 43.5 117.5 36.4 84.3 47.4 C 50.9 58.5 30.2 82.4 23.1 116.9 C 12.6 168.2 49.1 218.3 101.1 224.9 C 106.3 225.6 111.5 225.7 116.8 225.5 C 122 225.3 125.4 227.8 125.9 232.2 C 126.4 236.6 123.5 240.1 118.4 240.6 C 102.8 242 87.6 239.6 73.4 233.5 C 34.1 216.7 10.8 187.1 6.4 144.4 C 0.6 89.5 36.8 40.9 91 29.3 C 98.1 27.8 105.3 27.1 112.6 27.2 Z"
        fill="#f75b1e"/>
    <path
        id="path_1"
        d="M 246.4 54.7 C 251.1 54.7 255.9 54.8 260.6 54.7 C 266.3 54.6 269.1 51.9 269.4 46.3 C 270.5 26.3 284.9 12.5 304.9 12.3 C 309.5 12.3 314.1 12.3 318.8 12.3 C 324.4 12.3 327.9 15.4 327.9 20 C 327.8 24.6 324.3 27.5 318.6 27.5 C 314.1 27.5 309.6 27.5 305.1 27.5 C 293.7 27.6 285.7 35 284.7 46.2 C 283.2 62.3 274.8 70.1 258.6 70.1 C 250.4 70.1 242.1 70 233.9 70.1 C 220.2 70.2 210.4 80 210.3 93.8 C 210.2 101.4 210.3 109 210.3 116.7 C 210.3 122 207.2 125.5 202.7 125.5 C 198.2 125.5 195.1 122.1 195.1 116.7 C 195 109.1 195 101.5 195.1 93.8 C 195.4 71 211.6 54.8 234.5 54.6 C 238.4 54.7 242.4 54.7 246.4 54.7 Z"
        fill="#f75b1e"/>
    <path
        id="path_2"
        d="M 120.3 104.8 C 120.3 114.2 120.3 123.5 120.3 132.9 C 120.3 138.8 117.5 141.7 111.7 141.8 C 97.6 141.9 83.5 141.9 69.4 141.8 C 64.1 141.8 60.6 138.7 60.6 134.1 C 60.6 129.6 64.1 126.5 69.4 126.5 C 80.3 126.5 91.1 126.4 102 126.6 C 104.5 126.6 105.1 125.9 105.1 123.5 C 105 108.8 105 94 105 79.3 C 105 78.3 105 77.3 105 76.3 C 105.2 71.2 108.2 68 112.7 68 C 117.2 68 120.3 71.4 120.3 76.4 C 120.3 85.9 120.3 95.4 120.3 104.8 Z"
        fill="#f75b1e"/>
    <path
        id="path_3"
        d="M 251.3 79.3 C 257 79.3 262.8 79.4 268.5 79.3 C 284 78.8 296.5 66.4 297.3 50.9 C 297.6 45.9 299.5 42.8 303.1 41.9 C 308.4 40.5 313 44.5 312.8 50.6 C 312.4 70.7 297.6 88.9 277.9 93.6 C 272.6 94.8 267.3 95 261.9 95 C 252.3 95 242.7 95 233.1 95 C 229.7 95 227 93.8 225.3 90.8 C 223.9 88.2 224.1 85.5 225.8 83 C 227.6 80.4 230.2 79.5 233.3 79.5 C 239.3 79.4 245.3 79.4 251.3 79.3 C 251.3 79.4 251.3 79.3 251.3 79.3 Z"
        fill="#f75b1e"/>
    <path
        id="path_4"
        d="M 327.9 203.4 C 327.6 191 318.1 181.6 305.7 181.1 C 302.3 180.9 298.9 180.8 295.6 181.1 C 292.9 181.3 292.3 180.3 292.3 177.7 C 292.4 166.7 292.4 155.7 292.4 144.7 C 292.4 136.2 290.2 134 281.9 134 C 238.5 134 195.2 134 151.8 134 C 143.5 134 141.3 136.2 141.3 144.4 C 141.3 183.6 141.4 222.9 141.2 262.1 C 141.2 272 142.5 281.2 148.9 290 C 142.4 290 136.7 290 131 290 C 125.9 290.1 122.7 293.1 122.6 297.6 C 122.6 302.2 125.8 305.2 130.9 305.2 C 188.1 305.5 245.4 305.5 302.6 305.2 C 304.1 305.2 305.6 305.1 307 304.4 C 310.1 302.7 311.6 299.3 310.9 295.8 C 310.2 292.5 307.3 290.1 303.5 290 C 297.5 289.9 291.4 290 285 290 C 286.3 287.7 287.4 285.9 288.4 284 C 292.2 276.8 292.7 269 292.4 261 C 292.3 258.6 292.9 257.6 295.5 257.8 C 298.9 258 302.2 257.9 305.6 257.8 C 317.9 257.4 327.7 248 328 235.6 C 328.1 224.9 328.1 214.2 327.9 203.4 Z M 277 210.1 C 277 228.3 277 246.6 277 264.8 C 277 280.3 267.5 289.8 252 289.8 C 228.4 289.8 204.8 289.8 181.1 289.8 C 165.9 289.8 156.3 280.2 156.3 264.9 C 156.3 227.5 156.3 190.2 156.2 152.8 C 156.2 149.8 157 149.1 159.9 149.1 C 197.8 149.2 235.6 149.2 273.5 149.1 C 276.4 149.1 276.9 150 276.9 152.7 C 276.9 171.9 277 191 277 210.1 Z M 312.4 234.9 C 312.3 239.4 309.4 242.3 304.8 242.5 C 301.4 242.7 298.1 242.4 294.7 242.6 C 292.7 242.7 292.1 241.9 292.2 240 C 292.3 233 292.2 226 292.2 219 C 292.2 212.4 292.3 205.8 292.2 199.2 C 292.2 197 292.5 196 295 196.2 C 298.2 196.4 301.5 196.2 304.7 196.3 C 309.2 196.5 312.3 199.3 312.3 203.8 C 312.5 214.2 312.5 224.6 312.4 234.9 Z"
        fill="#f75b1e"/>
</svg>
