<svg id="vector" xmlns="http://www.w3.org/2000/svg" width="24" height="24" viewBox="0 0 404.0 404.0"><path fill="#EDF2F5" d="M202,202m-202,0a202,202 0,1 1,404 0a202,202 0,1 1,-404 0" id="path_0"/><path fill="#9EADB6" d="M201,162.6c-25.3,0 -46,20.5 -46,45.8c0,25.2 20.6,45.8 46,45.8c25.3,0 46,-20.5 46,-45.8C247,183.2 226.3,162.6 201,162.6zM201,247c-21.4,0 -38.7,-17.3 -38.7,-38.6c0,-21.3 17.4,-38.6 38.7,-38.6c21.3,0 38.7,17.3 38.7,38.6C239.7,229.7 222.4,247 201,247zM268.6,165.5c-3.7,0 -6.7,3 -6.7,6.7c0,3.7 3,6.7 6.7,6.7c3.7,0 6.7,-3 6.7,-6.7C275.3,168.5 272.3,165.5 268.6,165.5zM273.3,144.9h-29.6l-2.4,-8.3l-0.1,-0.3c-1.2,-4.8 -5.6,-8.3 -10.6,-8.3h-59.3c-5.1,0 -9.5,3.5 -10.5,8.2l-2.6,8.7h-29.5c-12,0 -21.7,9.7 -21.7,21.6v87.8C107,266.3 116.7,276 128.7,276H273.3c12,0 21.7,-9.7 21.7,-21.6v-87.8C295,154.6 285.3,144.9 273.3,144.9zM287.8,254.4c0,8 -6.5,14.4 -14.5,14.4H128.7c-8,0 -14.5,-6.5 -14.5,-14.4v-87.8c0,-8 6.5,-14.4 14.5,-14.4h34.9l4.2,-14.1c0.4,-1.7 1.8,-2.8 3.5,-2.8h59.3c1.7,0 3.2,1.2 3.5,2.8l4,14.1h35.1c8,0 14.5,6.5 14.5,14.4V254.4z" id="path_1"/></svg>