<svg
    xmlns="http://www.w3.org/2000/svg"
    viewBox="0 0 82 76"
    id="vector">
    <path
        id="path"
        d="M 40.6 67.3 L 15.3 67.3 C 13 67.3 11 65.5 11 63.3 L 11 16.2 C 11 14 12.9 12.2 15.3 12.2 L 66 12.2 C 68.3 12.2 70.3 14 70.3 16.2 L 70.3 39.8 C 70.4 40.5 71.1 41 71.8 41 C 72.4 41 73 40.5 73.1 39.8 C 73.1 31.9 73.1 24.1 73.1 16.2 C 73.1 12.6 69.9 9.6 66 9.6 L 15.3 9.6 C 11.4 9.6 8.2 12.6 8.2 16.2 L 8.2 63.4 C 8.2 67 11.4 70 15.3 70 L 40.7 70 C 41.3 69.9 41.8 69.5 41.9 69 C 42 68.3 41.5 67.5 40.6 67.3 Z"
        fill="#8057a3"
        stroke="#8057a3"
        stroke-width="1"/>
    <path
        id="path_1"
        d="M 19.2 29.7 C 19.2 28.1 20.5 26.8 22.1 26.8 C 23.7 26.8 25 28.1 25 29.7 C 25 31.3 23.7 32.6 22.1 32.6 C 20.5 32.6 19.1 31.3 19.2 29.7 Z"
        fill="#8057a3"/>
    <path
        id="path_2"
        d="M 37.6 29.7 C 37.6 31.3 36.3 32.6 34.7 32.6 C 33.1 32.6 31.8 31.3 31.8 29.7 C 31.8 28.1 33.1 26.8 34.7 26.8 C 36.3 26.8 37.6 28.1 37.6 29.7 Z"
        fill="#8057a3"/>
    <path
        id="path_3"
        d="M 50.2 29.7 C 50.2 31.3 48.9 32.6 47.3 32.6 C 45.7 32.6 44.4 31.3 44.4 29.7 C 44.4 28.1 45.7 26.8 47.3 26.8 C 48.9 26.8 50.2 28.1 50.2 29.7 Z"
        fill="#8057a3"/>
    <path
        id="path_4"
        d="M 59.9 26.8 C 61.5 26.8 62.8 28.1 62.8 29.7 C 62.8 31.3 61.5 32.6 59.9 32.6 C 58.3 32.6 57 31.3 57 29.7 C 57 28.1 58.3 26.8 59.9 26.8 Z"
        fill="#8057a3"/>
    <path
        id="path_5"
        d="M 22.1 39.4 C 23.7 39.4 25 40.7 25 42.3 C 25 43.9 23.7 45.2 22.1 45.2 C 20.5 45.2 19.2 43.9 19.2 42.3 C 19.2 40.8 20.5 39.4 22.1 39.4 Z"
        fill="#8057a3"/>
    <path
        id="path_6"
        d="M 34.7 45.2 C 33.1 45.2 31.8 43.9 31.8 42.3 C 31.8 40.7 33.1 39.4 34.7 39.4 C 36.3 39.4 37.6 40.7 37.6 42.3 C 37.6 43.9 36.3 45.2 34.7 45.2 Z"
        fill="#8057a3"/>
    <path
        id="path_7"
        d="M 25 54.9 C 25 56.5 23.7 57.8 22.1 57.8 C 20.5 57.8 19.2 56.5 19.2 54.9 C 19.2 53.3 20.5 52 22.1 52 C 23.6 52.1 24.9 53.4 25 54.9 Z"
        fill="#8057a3"/>
    <path
        id="path_8"
        d="M 37.6 55 C 37.6 56.6 36.3 57.9 34.7 57.9 C 33.1 57.9 31.8 56.6 31.8 55 C 31.8 53.4 33.1 52.1 34.7 52.1 C 36.3 52.1 37.6 53.4 37.6 55 Z"
        fill="#8057a3"/>
    <path
        id="path_9"
        d="M 25.1 17 L 24.3 17 C 23.6 17 23 16.4 23 15.7 L 23 6.5 C 23 5.8 23.6 5.2 24.3 5.2 L 25.1 5.2 C 25.8 5.2 26.4 5.8 26.4 6.5 L 26.4 15.7 C 26.4 16.4 25.9 17 25.1 17 Z"
        fill="#8057a3"
        stroke="#8057a3"
        stroke-width="1"/>
    <path
        id="path_10"
        d="M 43.1 17 L 42.3 17 C 41.6 17 41 16.4 41 15.7 L 41 6.5 C 41 5.8 41.6 5.2 42.3 5.2 L 43.1 5.2 C 43.8 5.2 44.4 5.8 44.4 6.5 L 44.4 15.7 C 44.4 16.4 43.8 17 43.1 17 Z"
        fill="#8057a3"
        stroke="#8057a3"
        stroke-width="1"/>
    <path
        id="path_11"
        d="M 61.2 17 L 60.4 17 C 59.7 17 59.1 16.4 59.1 15.7 L 59.1 6.5 C 59.1 5.8 59.7 5.2 60.4 5.2 L 61.2 5.2 C 61.9 5.2 62.5 5.8 62.5 6.5 L 62.5 15.7 C 62.5 16.4 61.9 17 61.2 17 Z"
        fill="#8057a3"
        stroke="#8057a3"
        stroke-width="1"/>
    <path
        id="path_12"
        d="M 58.9 55.1 M 46.2 55.1 C 46.2 52.418 47.049 49.805 48.625 47.635 C 50.202 45.466 52.425 43.85 54.975 43.022 C 57.526 42.193 60.274 42.193 62.825 43.022 C 65.375 43.85 67.598 45.466 69.175 47.635 C 70.751 49.805 71.6 52.418 71.6 55.1 C 71.6 58.467 70.261 61.699 67.88 64.08 C 65.499 66.461 62.267 67.8 58.9 67.8 C 55.533 67.8 52.301 66.461 49.92 64.08 C 47.539 61.699 46.2 58.467 46.2 55.1"
        fill="none"
        stroke="#8057a3"
        stroke-width="3.5"/>
    <path
        id="path_13"
        d="M 58.9 57.7 L 58.9 57.7 C 58.2 57.7 57.6 57.1 57.6 56.4 L 57.6 50.6 C 57.6 49.9 58.2 49.3 58.9 49.3 L 58.9 49.3 C 59.6 49.3 60.2 49.9 60.2 50.6 L 60.2 56.4 C 60.2 57.1 59.6 57.7 58.9 57.7 Z"
        fill="#8057a3"
        stroke="#8057a3"
        stroke-width="1"/>
    <path
        id="path_14"
        d="M 57.6 56.9 L 57.6 56.9 C 57.6 56.2 58.2 55.6 58.9 55.6 L 64.7 55.6 C 65.4 55.6 66 56.2 66 56.9 L 66 56.9 C 66 57.6 65.4 58.2 64.7 58.2 L 58.9 58.2 C 58.2 58.2 57.6 57.6 57.6 56.9 Z"
        fill="#8057a3"
        stroke="#8057a3"
        stroke-width="1"/>
</svg>
