<svg id="fi_5678260" enable-background="new 0 0 512 512" height="512" viewBox="0 0 512 512"
    width="512" xmlns="http://www.w3.org/2000/svg">
    <g>
        <path
            d="m424.704 60h-75.213c-6.969-34.192-37.271-60-73.491-60h-40c-36.219 0-66.522 25.808-73.491 60h-75.214c-29.938 0-54.295 24.357-54.295 54.295v30.705c0 8.284 6.716 15 15 15h16.094l20.195 266.437c1.769 23.344 12.199 44.965 29.367 60.881s39.515 24.682 62.926 24.682h158.836c23.411 0 45.759-8.765 62.927-24.682 17.169-15.916 27.598-37.538 29.367-60.881l20.194-266.437h16.094c8.284 0 15-6.716 15-15v-30.705c0-29.938-24.357-54.295-54.296-54.295zm-188.704-30h40c19.557 0 36.239 12.539 42.43 30h-124.86c6.191-17.461 22.874-30 42.43-30zm161.798 394.169c-2.458 32.429-29.859 57.831-62.38 57.831h-158.836c-32.521 0-59.921-25.402-62.379-57.831l-20.023-264.169h323.64zm51.202-294.169h-386v-15.705c0-13.396 10.899-24.295 24.295-24.295h88.705 160 88.704c13.397 0 24.296 10.899 24.296 24.295z"></path>
        <path
            d="m256 440c65.617 0 119-53.383 119-119s-53.383-119-119-119-119 53.383-119 119 53.383 119 119 119zm0-208c49.075 0 89 39.925 89 89s-39.925 89-89 89-89-39.925-89-89 39.925-89 89-89z"></path>
        <path
            d="m214.281 362.719c2.929 2.929 6.768 4.394 10.606 4.394s7.678-1.464 10.606-4.394l20.507-20.506 20.506 20.506c2.929 2.929 6.768 4.394 10.606 4.394s7.678-1.465 10.606-4.394c5.858-5.857 5.858-15.355 0-21.213l-20.505-20.506 20.506-20.506c5.858-5.858 5.858-15.355 0-21.213-5.857-5.858-15.355-5.858-21.213 0l-20.506 20.506-20.506-20.506c-5.858-5.857-15.355-5.858-21.213 0-5.858 5.857-5.858 15.355 0 21.213l20.506 20.506-20.506 20.506c-5.858 5.858-5.858 15.356 0 21.213z"></path>
    </g>
</svg>