<svg
    xmlns="http://www.w3.org/2000/svg"
    viewBox="0 0 533 490"
    id="vector">
    <path
        id="path"
        d="M 524 381 C 522 387.6 520.4 394.3 518 400.7 C 502.2 442.7 472 468.3 428.5 478.4 C 423.9 479.5 419.1 480.4 414.2 480 C 403.7 481.3 403.3 481.1 403.4 470.9 C 403.5 464.7 402.8 458.4 403.9 452.2 C 404.8 449.6 407.2 449.8 409.3 449.6 C 425.9 447.8 441.6 443.4 455.4 433.4 C 475 419.2 487.9 400.5 492.2 376.6 C 496.9 350.7 491.4 326.7 475 306 C 459.1 286 438.4 273.8 412.4 272 C 409.6 271.8 406.7 271.7 404.5 269.6 C 403.2 267.1 403.7 264.4 403.6 261.8 C 403.5 256.5 403.6 251.2 403.6 245.9 C 403.6 243.1 402.6 241.7 399.4 241.9 C 376 242.8 354.8 250.1 335.9 263.8 C 334.2 265 332.6 267.2 330.3 265.9 C 328.3 264.8 328.6 262.4 328.7 260.4 C 328.9 255.3 327.8 250.1 329.5 245.1 C 331.3 243.1 333.8 243.7 336.1 243.5 C 356.7 242.4 376.9 239.3 395.8 230.6 C 408.3 224.8 419.7 217.4 427.4 205.4 C 428.9 203 430.1 200.5 431.2 197.8 C 431.8 196.5 431.8 194.2 434.3 194.8 C 434.8 204.2 434.5 213.7 434.5 223.1 C 434.5 227.5 432.9 231.5 430.5 235.2 C 427.6 239.8 427.7 239.9 432.6 242 C 433.5 242.4 434.3 243 435 243.7 C 471.8 254 498.5 276.4 514.6 311.1 C 518.7 320 521.8 329.3 523.1 339.1 C 523.2 339.7 523.7 340.2 524 340.7 C 524 354.3 524 367.7 524 381 Z"
        fill="#fd9823"/>
    <path
        id="path_1"
        d="M 12 57 C 14.9 50.9 16.9 44.4 21.3 39.1 C 33.1 24.7 49 16.9 66.2 11.6 C 86.4 5.4 107.3 3.8 128.4 4.2 C 129.4 4.2 130.3 4.7 131.2 4.9 C 129.1 7.1 126.3 6.5 123.7 6.7 C 121.1 6.9 119.8 8.1 119.7 10.7 C 119.6 12.5 119.6 14.4 119.6 16.2 C 119.6 49 119.6 81.7 119.6 114.5 C 119.6 117.3 119.9 120.2 119 122.9 C 118.2 125 116.4 125.3 114.5 125.3 C 84.6 125.4 56.2 119.6 31.6 101.5 C 23.3 95.3 16 87.6 13.1 76.9 C 13 74.9 12.8 72.9 12 71 C 12 66.3 12 61.7 12 57 Z"
        fill="#fdda41"/>
    <path
        id="path_2"
        d="M 137.2 454.1 C 127.5 455.9 117.6 455.3 107.9 454.8 C 88.3 453.8 69.2 450.4 51.3 442.2 C 37.8 436 25.6 428.1 17.8 414.9 C 15.6 411.1 14 407 12.1 403 C 12.1 401 12.1 399 12.1 397 C 13.2 392 12.3 386.9 12.6 381.8 C 12.7 379.9 12.1 377.9 13.1 376 C 15.3 375.5 15.6 377.3 16.1 378.6 C 21.3 390.8 30.6 399.2 41.7 405.7 C 58.8 415.7 77.6 420.5 97.1 422.6 C 104.2 423.4 111.3 424 118.5 423.6 C 120.2 423.6 122 423.6 123.2 425.1 C 119.8 428.3 119.1 432.3 119.5 436.7 C 119.8 440.2 119.7 443.7 119.5 447.1 C 119.3 450.9 120.8 452.6 124.7 452.4 C 127.2 452.3 129.7 452.3 132.2 452.4 C 133.9 452.6 135.8 452.5 137.2 454.1 Z"
        fill="#fda732"/>
    <path
        id="path_3"
        d="M 12 222 C 12 221 12 220 12 219 C 13.1 213.4 12.2 207.6 12.5 202 C 12.6 200.1 12.1 198.1 12.9 196.2 C 15.4 195.4 15.7 197.6 16.3 198.9 C 23.6 215 37.1 224.1 52.4 231 C 69.3 238.6 87.4 241.6 105.7 243.3 C 110.1 244.7 115 242.4 119.2 245 C 120 252.3 119.3 259.6 119.5 266.9 C 119.7 272.1 119.9 272.4 125.3 272.6 C 128.2 272.7 131.3 271.9 134 274 C 133.7 276.9 131.3 276.4 129.5 276.5 C 126 276.8 122.5 276.7 119.1 276.6 C 99 276.1 79.2 273.9 60.2 267.1 C 44.5 261.4 30 253.8 19.6 240.1 C 16.4 235.8 13.7 231.2 12.8 225.8 C 12.2 224.5 12.9 223.1 12 222 Z"
        fill="#fda732"/>
    <path
        id="path_4"
        d="M 14 76 C 18.9 90.6 29.9 99.9 42.7 107.2 C 59.2 116.6 77.4 121 96.2 123.2 C 103.5 124 110.8 123.9 118.1 124.1 C 123.7 121.6 129.3 121.9 134.9 123.8 C 135.4 126.5 133.1 126.2 131.7 126.4 C 129.3 126.9 126.7 126.7 124.3 126.6 C 120.9 126.5 119.6 128.1 119.6 131.4 C 119.7 136.7 119.7 142 119.6 147.3 C 119.6 149.6 119.8 152 118.5 154.1 C 114.3 156.7 109.7 155 105.3 155.5 C 81.2 153.9 58.2 148.7 37.5 135.6 C 28 129.6 19.9 121.9 14.9 111.5 C 13.9 109.4 13.1 107.2 13 104.8 C 12.6 103.9 12.9 102.8 12.1 102 C 12.1 101 12.1 100 12.1 99 C 13.2 92.7 12.2 86.3 12.7 80 C 12.7 78.6 11.3 76.5 14 76 Z"
        fill="#fda732"/>
    <path
        id="path_5"
        d="M 12 342 C 12 341 12 340 12 339 C 13.1 333.3 12.2 327.6 12.5 321.9 C 12.6 320 12 318 12.9 316.1 C 15.1 315.5 15.4 317.4 15.9 318.6 C 21.4 331.3 31.1 339.8 42.8 346.4 C 60.5 356.4 79.8 361 99.9 362.8 C 106 363.4 112.1 363.8 118.3 363.7 C 119.7 363.8 121.1 363.9 122.1 365.1 C 119.4 368.5 119.3 372.5 119.3 376.7 C 119.3 382.4 119.8 388.2 118.9 393.9 C 118.7 394.4 118.4 394.9 118 395.3 C 115.2 396.9 112.1 396.5 109.2 396.3 C 85.9 395 63.3 390.8 42.5 379.3 C 32.6 373.8 23.9 367 17.6 357.5 C 15.2 353.8 13.2 350 12.7 345.6 C 12.2 344.5 12.9 343 12 342 Z"
        fill="#fda732"/>
    <path
        id="path_6"
        d="M 13 345 C 22.3 369.9 43.4 380.4 66.5 387.9 C 83.2 393.3 100.5 395.1 118 395.1 C 118.8 395.8 119.2 396.7 119.3 397.7 C 119.8 405.9 119.8 414.2 119.3 422.4 C 119.2 423.4 118.7 424.3 118 425 C 91.7 425 66.2 420.9 42.9 407.9 C 29.7 400.6 18.5 391.3 14 376 C 12.1 375.3 13 373.1 12 372 C 12 371 12 370 12 369 C 13.1 363.1 12.2 357.2 12.5 351.3 C 12.7 349.2 12 347 13 345 Z"
        fill="#fdda41"/>
    <path
        id="path_7"
        d="M 105 244 C 79.6 242.5 55.6 237 34.3 222.1 C 24.8 215.5 17.6 207.1 13.9 196 C 12.2 194.7 12.9 192.5 11.9 191 C 11.9 190 11.9 189 11.9 188 C 13 180.7 12.1 173.3 12.4 165.9 C 13.7 163.5 14.5 165.5 15 166.4 C 16.4 168.6 17.2 171.2 18.6 173.5 C 23.2 181 29.3 187.1 36.5 192 C 53.6 203.5 72.8 208.9 93 211.7 C 99.9 212.7 107 212.1 113.8 213.4 C 115.7 213.8 117.9 213.7 118.9 215.9 C 120.1 224.1 119.5 232.4 119.3 240.6 C 119.2 243.1 118.1 244.6 115.2 244.4 C 111.9 244.2 108.4 245 105 244 Z"
        fill="#fdda41"/>
    <path
        id="path_8"
        d="M 13 224.9 C 22.6 249.8 43.6 260.4 67 267.7 C 83.5 272.9 100.7 274.6 118 275 C 119.2 276.3 119.5 277.9 119.5 279.6 C 119.6 286.2 119.6 292.8 119.5 299.4 C 119.5 303.5 117.5 305.5 113.4 305.4 C 110.4 305.3 107.5 305.4 104.5 305.4 C 77.1 304 51.4 297.4 29.3 280.1 C 21.6 274.1 15.7 266.5 13 256.9 C 12.4 255 12.9 252.9 12 251.1 C 12 250.4 12 249.8 12 249.1 C 13.1 243.2 12.2 237.3 12.5 231.4 C 12.7 229.2 12 227 13 224.9 Z"
        fill="#fdda41"/>
    <path
        id="path_9"
        d="M 13 104 C 20.7 126.1 38.6 137 58.9 144.8 C 73.3 150.4 88.5 153 104 154 C 107.6 155 111.3 154.5 114.9 154.4 C 117.9 154.4 119.3 155.5 119.4 158.3 C 119.7 165.6 119.7 173 119.4 180.3 C 119.3 183.5 117.6 185.2 114.4 185.3 C 112.4 185.4 110.4 185.4 108.4 185.4 C 83.1 184.4 58.9 179.2 37.2 165.5 C 26.2 158.6 17 149.8 13 136.8 C 12.8 134.8 12.7 132.9 11.9 131 C 11.9 130 11.9 129 11.9 128 C 13 122.1 12.1 116.2 12.4 110.3 C 12.7 108.2 12 106 13 104 Z"
        fill="#fdda41"/>
    <path
        id="path_10"
        d="M 14 76 C 11.9 81.5 13.6 87.3 13 92.9 C 12.8 94.9 13.8 97.2 12 99 C 12 89.7 12 80.3 12 71 C 13.4 72.4 13.6 74.2 14 76 Z"
        fill="#fdaf40"/>
    <path
        id="path_11"
        d="M 12 191 C 13.4 192.4 13.6 194.2 14 196 C 11.9 201.5 13.6 207.3 13 212.9 C 12.8 214.9 13.8 217.2 12 219 C 12 209.7 12 200.3 12 191 Z"
        fill="#fdaf40"/>
    <path
        id="path_12"
        d="M 13.9 316 C 11.9 321.5 13.5 327.3 12.9 332.9 C 12.7 334.9 13.7 337.2 11.9 339 C 11.9 330 11.9 321 11.9 312 C 12.3 311.7 12.7 311.7 13.2 312 C 14.1 313.2 14.7 314.5 13.9 316 Z"
        fill="#fdaf40"/>
    <path
        id="path_13"
        d="M 12 131 C 13.4 132.4 13.6 134.2 14 136 C 13.9 140.9 14.9 145.8 14.5 150.7 C 14.3 152.7 14.6 154.7 13.6 156.5 C 13.2 157.1 12.7 157.2 12 156.9 C 12 148.3 12 139.7 12 131 Z"
        fill="#fdae40"/>
    <path
        id="path_14"
        d="M 12 251 C 13.6 252.3 12.8 254.5 14 256 C 14 260.9 14.9 265.8 14.5 270.7 C 14.3 272.7 14.6 274.7 13.6 276.5 C 13.2 277.1 12.7 277.2 12 276.9 C 12 268.3 12 259.7 12 251 Z"
        fill="#fdae3f"/>
    <path
        id="path_15"
        d="M 13 345 C 13 351.5 13 357.9 13 364.4 C 13 366 13.5 367.8 12 369.1 C 12 360.1 12 351.1 12 342.1 C 13.2 342.7 13 343.9 13 345 Z"
        fill="#fdda4c"/>
    <path
        id="path_16"
        d="M 13 224.9 C 13 231.4 13 237.8 13 244.3 C 13 245.9 13.5 247.7 12 249 C 12 240 12 231 12 222 C 13.2 222.7 13 223.9 13 224.9 Z"
        fill="#fddc4d"/>
    <path
        id="path_17"
        d="M 13 104 C 13 110.5 13 116.9 13 123.4 C 13 125 13.5 126.8 12 128.1 C 12 119.4 12 110.8 12 102.1 C 12.8 102.4 13 103.2 13 104 Z"
        fill="#fddb4d"/>
    <path
        id="path_18"
        d="M 13 165 C 13 171.1 13 177.3 13 183.4 C 13 185 13.5 186.8 12 188.1 C 12 179.4 12 170.8 12 162.1 C 12.5 161.7 12.9 161.8 13.3 162.2 C 13.9 163.1 13.8 164.1 13 165 Z"
        fill="#fddb4d"/>
    <path
        id="path_19"
        d="M 12 372 C 13.4 373 13.1 374.8 14 376 C 11.9 380.9 13.6 386 13 390.9 C 12.8 392.9 13.8 395.2 12 397 C 12 388.7 12 380.3 12 372 Z"
        fill="#fdae3f"/>
    <path
        id="path_20"
        d="M 12 307 C 12 298.7 12 290.3 12 282 C 12.6 281.7 13.1 281.8 13.5 282.3 C 14.1 283.4 14.3 284.5 14.3 285.7 C 14 292.6 15.5 299.6 13.5 306.5 C 13.2 307.2 12.6 307.3 12 307 Z"
        fill="#fddc4e"/>
    <path
        id="path_21"
        d="M 13 282 C 12.7 282 12.4 282 12 282 C 12 280.3 12 278.7 12 277 C 12.3 277 12.7 277 13 277 C 14.4 278.7 14.4 280.4 13 282 Z"
        fill="#fdbd44"/>
    <path
        id="path_22"
        d="M 12 307 C 12.3 307 12.7 307 13 307 C 14.4 308.7 14.4 310.3 13 312 C 12.7 312 12.3 312 12 312 C 12 310.3 12 308.7 12 307 Z"
        fill="#fdcd4a"/>
    <path
        id="path_23"
        d="M 13 162 C 12.7 162 12.3 162 12 162 C 12 160.3 12 158.7 12 157 C 12.3 157 12.7 157 13 157 C 14.4 158.7 14.4 160.3 13 162 Z"
        fill="#fdc045"/>
    <path
        id="path_24"
        d="M 135 124 C 129.3 124 123.7 124 118 124 C 118 86.4 118.1 48.8 117.9 11.2 C 117.9 6.1 119.2 4.2 124.3 4.9 C 126.6 5.2 128.9 4.9 131.3 4.8 C 157.2 6.1 181.6 12 203.1 27.3 C 219 38.7 226.8 54 224.2 73.8 C 220.2 91.4 207.4 101.4 192.6 109.5 C 175.7 118.7 157.3 122.8 138.3 124.8 C 137 125.1 135.9 124.9 135 124 Z"
        fill="#fecb33"/>
    <path
        id="path_25"
        d="M 225.8 115.8 C 227.9 104.1 235.3 95.8 244.1 88.8 C 259.6 76.4 277.9 70.6 297.1 67.2 C 310.4 64.8 323.8 64.2 337.3 64.3 C 338.9 64.3 340.7 63.9 342.1 65 C 340.4 66.8 338.1 66.6 336 66.7 C 332.8 66.8 331.6 68.4 331.6 71.4 C 331.6 73.1 331.6 74.7 331.6 76.4 C 331.6 108.9 331.6 141.4 331.6 173.9 C 331.6 175.7 331.7 177.6 331.5 179.4 C 331.2 184.2 330.1 185.2 325.4 185.5 C 323.4 185.6 321.4 185.5 319.4 185.5 C 292.2 184.4 266.3 178.6 244.1 162 C 234.7 155 226.8 146.4 224.6 134.1 C 224.7 130.1 222.3 126.4 223.3 122.3 C 224.8 120.3 224.4 117.7 225.8 115.8 Z"
        fill="#fdda41"/>
    <path
        id="path_26"
        d="M 318 184 C 330 183.9 330 183.9 330 172.1 C 330 138.5 330.1 104.9 329.9 71.3 C 329.9 66.4 330.9 64.1 336.2 65 C 338.1 65.3 340.2 65 342.2 65 C 354.5 65.3 366.5 67 378.2 71 C 376.7 73.1 373.8 72 371.7 74 C 373.9 75.2 376.4 73.9 378.2 75.5 C 379.9 76.9 381 78.8 382.8 80 C 386.2 82.2 389.5 84.1 393.8 83.9 C 397.8 83.7 400.8 85 403.1 89 C 405.2 92.7 410 94.3 412 98.6 C 412.6 99.9 414.4 99 415.7 98.5 C 418 97.5 418.9 98.5 418.6 100.7 C 418 104.7 419.8 106.9 423.4 108.3 C 426.4 109.5 428.5 111.6 426.4 115.3 C 425.8 116.3 425.7 117.5 425.9 118.7 C 426.5 125.3 427.4 131.9 426.4 138.7 C 427.3 135.2 427.6 131.3 432.1 131.1 C 434.8 131 433.8 133.7 434.1 135.4 C 432.9 146 426.1 153.1 418.6 159.6 C 404.1 172.1 386.6 178.4 368.2 182.3 C 361.4 183.8 354.4 184.7 347.5 185.5 C 342.4 185.8 337.3 184.9 332.3 186.1 C 331.4 186.3 330.6 186.4 329.7 186.5 C 327.1 186.7 324.4 186.8 321.8 186.5 C 320.2 186.2 318.3 186.3 318 184 Z"
        fill="#fecb33"/>
    <path
        id="path_27"
        d="M 224 122 C 224.6 126 225.3 130 225.9 134.1 C 224.4 134.4 224.5 133.3 224.4 132.4 C 223.8 133.5 224.2 134.8 223.8 136 C 219.1 152.1 207.2 161.6 193.5 169.3 C 175.8 179.2 156.2 183 136.4 185.5 C 131.3 185.8 126.2 184.9 121.2 186.1 C 120 186.4 118.9 186.5 117.7 186.5 C 115.4 186.7 113.1 186.7 110.8 186.5 C 109.3 186.3 107.4 186.5 107.1 184.2 C 118.1 184.1 118.1 184.1 118.1 173.3 C 118.1 168.8 117.9 164.3 118.2 159.8 C 118.5 155.9 116.9 155 113.3 155.1 C 110.3 155.2 107 156.2 104.1 154.2 C 108.8 154.2 113.4 154.2 118.1 154.2 C 121.9 152.4 125.9 153 129.9 152.9 C 153.7 151.8 176.4 146.8 197 134.2 C 207.9 127.5 216.7 118.9 221.2 106.5 C 221.7 105.1 221.8 103 224.2 103.1 C 224.2 107.4 224.3 111.7 224.3 116 C 225.2 117.9 225.4 119.9 224 122 Z"
        fill="#fecb33"/>
    <path
        id="path_28"
        d="M 224 103 C 220.2 113.3 214.8 122.5 206 129.3 C 194.3 138.4 181.1 144.3 166.9 148.3 C 151.3 152.7 135.4 154 119.3 154.6 C 118.8 154.6 118.4 154.2 117.9 154 C 117.9 147 117.9 140.1 117.9 133.1 C 118 123.8 116.7 125.2 126.2 125 C 129.1 124.9 132.2 126.1 134.9 124.1 C 156.6 121.8 177.7 117.4 196.7 105.7 C 208.3 98.6 217.9 89.8 222.3 76.4 C 222.6 75.5 223.4 74.8 224 74 C 224.1 83.6 224 93.3 224 103 Z"
        fill="#fd9823"/>
    <path
        id="path_29"
        d="M 433 135.1 C 432.3 134.1 434.3 131.4 431.4 132 C 428.9 132.5 427.5 134.5 428.2 137.3 C 428.5 138.5 429.6 139.9 427.8 140.7 C 427.2 141 426.1 140.9 425.4 140.5 C 423.8 139.7 423.6 138.1 424.2 136.6 C 426.6 130.6 424.8 124.6 424.2 118.6 C 424.1 117 423.8 115.6 425 114.4 C 428 111.5 425 109.7 423.3 109.4 C 416.9 108 416 104.1 417.8 98.4 C 412.1 102.2 411.4 102 408.9 96 C 408.3 94.6 407.7 93.5 405.9 93.2 C 403.9 92.9 401.9 91.3 401.5 89.5 C 400.6 85.3 397.7 84.8 394.5 84.9 C 387.7 85.3 382.5 82.7 378.5 77.2 C 377.2 75.4 375.3 74.3 373 76.2 C 371.7 77.2 370.3 77 370.2 75.1 C 370.1 73.8 368.9 71.6 371.8 71.3 C 373.9 71.1 376 70.9 378.2 70.8 L 378.1 70.8 C 382.2 72 385.9 74.1 390.2 74.8 L 390.1 74.8 C 391.5 75.9 393.4 76 394.9 76.9 C 397.6 78.3 400.4 79.7 403.1 81 C 403.4 84.2 406.1 83.4 408 83.9 C 416.4 89.5 424 95.9 429.1 104.9 C 430.2 106 430.3 107.7 431.2 108.9 C 431.4 110.5 432.6 111.9 432.2 113.6 C 435 117.3 434.6 121.7 434.6 125.9 C 434.6 128.7 434.7 131.5 434.5 134.4 C 434.1 135.2 433.7 135.3 433 135.1 Z"
        fill="#fecb33"/>
    <path
        id="path_30"
        d="M 434 135 C 433.8 127.9 434.9 120.7 432.1 113.8 C 435.6 116.4 434.9 120.2 434.9 123.7 C 435 159.3 435 194.9 435 230.6 C 435 235.1 435 239.6 435 244.1 C 434.8 244.1 434.7 244.1 434.5 244.1 C 424.6 242.2 424.6 242.2 429.8 233.9 C 432.6 229.5 434.1 224.7 434.1 219.4 C 434 211.3 434.1 203.2 434.1 195.1 C 432.2 193.2 432.6 190.8 432.5 188.5 C 432.3 180.7 432.7 172.9 432.6 165.1 C 432.7 155 431.4 144.9 434 135 Z"
        fill="#fecc39"/>
    <path
        id="path_31"
        d="M 407.9 84 C 407.6 84.1 407.2 84.1 407 84.3 C 405.7 85.1 404.6 86.9 402.9 85.6 C 401.1 84.3 403.3 82.7 403.1 81.2 C 405.1 81.2 406.8 82.2 407.9 84 Z"
        fill="#fecb33"/>
    <path
        id="path_32"
        d="M 390.1 74.9 C 385.4 75.7 381.9 72.7 378 70.9 C 382.3 71.4 386.3 72.9 390.1 74.9 Z"
        fill="#fecb33"/>
    <path
        id="path_33"
        d="M 224 122 C 224 120 224.1 117.9 224.1 115.9 C 224.7 115.9 225.2 115.9 225.8 115.8 C 225.4 117.9 227.6 120.8 224 122 Z"
        fill="#fde16d"/>
    <path
        id="path_34"
        d="M 394.8 77 C 392.9 77 391.2 76.6 390 74.9 C 391.8 75.2 393.6 75.5 394.8 77 Z"
        fill="#fecb33"/>
    <path
        id="path_35"
        d="M 431.1 109 C 429.7 108 429.2 106.6 429 105 C 430.8 105.8 431.1 107.3 431.1 109 Z"
        fill="#fecb33"/>
    <path
        id="path_36"
        d="M 330 245 C 330 251 330 257 330 263 C 330 264 329.7 265.2 331 265.5 C 331.6 265.6 332.4 264.9 333.1 264.4 C 351.9 249.9 373.1 242 396.9 241 C 405.1 240.7 405 240.6 405 249 C 405 256 405 263 405 270 C 402.5 272.3 399.2 270.7 396.4 271.9 C 382.1 273.7 368.7 278 356.8 286.1 C 331.4 303.2 317.4 327 316.3 357.9 C 315.4 382.9 323.9 404.4 341.2 422.2 C 355.8 437.3 373.7 446.4 394.7 448.7 C 395.9 448.8 397 448.9 398.2 449.1 C 400.4 450 403.1 449 405 451 C 405 458.6 405.4 466.3 404.9 473.8 C 404.6 479 406.4 480.7 411.3 479.9 C 412.3 479.7 413.3 480 414.3 480 C 402.3 481.9 390.4 480.1 378.7 477.6 C 362.2 474.1 347.1 467.3 333.7 457.1 C 330.9 455 327.9 455 324.7 454.9 C 301 454.3 278.1 450.3 256.9 439.1 C 244.2 432.4 233.3 423.5 227.5 409.7 C 226.9 408.2 226.5 406.6 225.9 405 C 226 402.3 223.6 400.6 223 398.2 C 221.8 391 223.3 383.6 222.2 376.4 C 221.9 374.1 221.7 371.8 224.5 370.7 C 226.1 371.1 226.3 372.6 226.6 373.8 C 231 387.2 239.7 397 251.5 404.5 C 266.1 413.8 282.2 418.3 299.7 421.6 C 294.8 412.2 291 403.3 288 393.9 C 287.2 391.3 284.7 390.9 282.4 390.3 C 271.7 387.6 261.7 383.2 252.1 377.7 C 237.4 369.3 227.5 357.1 222.9 340.7 C 222.6 332.1 221.4 323.4 224 314.9 C 227.1 311.8 227.2 315.7 227.7 316.9 C 229.7 321.7 232.2 326.2 235.5 330.2 C 247.1 344.4 262.9 351.4 279.7 356.9 C 282.5 357.8 283.9 356.6 283.7 353.7 C 283.5 348.1 284.8 342.8 285.6 337.4 C 286.5 331.5 286.5 331.2 280.8 329.8 C 272 327.6 263.8 324 255.8 319.8 C 247.1 315.1 239.2 309.3 233 301.5 C 229.1 296.6 226 291.4 224.7 285.2 C 224.5 284 224.2 283.4 223 284.2 C 222.5 283.9 222.2 283.4 222.1 282.9 C 222.5 275.5 222.4 268 222.5 260.6 C 222.5 258.8 222.6 256.9 223.8 255.4 C 226.3 253.6 227.1 255.9 227.8 257.4 C 236.1 276.7 252.3 286.4 270.8 293.7 C 278.3 296.6 286 298.5 293.9 300.1 C 296.8 300.7 299.1 300.4 300.8 297.7 C 305.3 290.5 310.2 283.6 316.1 277.4 C 316.4 277 316.6 276.6 316.3 275.6 C 307.9 275 299.4 274.1 291 272.2 C 272.1 268 254.3 261.4 239.5 248.2 C 232.8 242.2 227.8 235 225.1 226.4 C 224.4 224.2 223.4 222 222.9 219.8 C 222.2 212.9 222.5 206.1 222.7 199.2 C 222.7 197.5 223 195.9 224.1 194.6 C 226.4 192.6 227 194.9 227.6 196.2 C 235.9 216.8 253.1 226.8 272.6 234.1 C 286.8 239.5 301.7 241.8 316.9 243.1 C 319.6 243.9 322.4 243.4 325.2 243.6 C 326.8 243.7 328.6 243.5 330 245 Z"
        fill="#fda732"/>
    <path
        id="path_37"
        d="M 223 376 C 225.1 380.7 223.6 385.7 224 390.5 C 224.2 393.3 224 396.1 224 398.9 C 224.1 400.1 223.9 401.2 223.4 402.3 C 222.3 412.3 216.7 419.9 209.7 426.5 C 194.3 441 175.2 447.7 154.9 451.9 C 149.1 453.1 143.2 454.2 137.2 454.2 C 132.4 454.2 127.6 453.9 122.8 454.2 C 119.2 454.4 117.7 453.4 117.9 449.5 C 118.2 444.1 118.2 438.6 117.9 433.1 C 117.7 429.1 118 425.7 123 425.1 C 124.6 423.4 126.7 423.8 128.6 423.8 C 151.6 422.7 173.7 418 194 406.5 C 205.4 400.1 214.9 391.7 220.2 379.4 C 220.9 378 221.4 376.5 223 376 Z"
        fill="#fd9823"/>
    <path
        id="path_38"
        d="M 223.4 402.2 C 222.9 400.9 223 399.8 224 398.8 C 225.9 400.5 226.2 402.7 225.9 405 C 224.7 404.5 225.4 402.1 223.4 402.2 Z"
        fill="#fece92"/>
    <path
        id="path_39"
        d="M 405 451 C 402.7 450.6 400.1 451.9 398 450 C 403.1 448.3 403.5 444.4 403.5 439.7 C 403.4 387.7 403.4 335.8 403.5 283.8 C 403.5 277.7 403.5 272.3 396 270.9 C 398.8 269 402 270.4 405 269.9 C 425.8 270.9 444.9 276.7 461.1 290 C 479.3 304.9 490.7 323.8 494 347.3 C 497.6 372.6 491.7 395.5 476 415.6 C 461.1 434.7 441.4 446.3 417.3 449.9 C 413.3 450.6 409.2 451.3 405 451 Z"
        fill="#fecb33"/>
    <path
        id="path_40"
        d="M 330 245 C 325.3 244.5 320.5 246 316 244 C 318.2 241.9 321 242.5 323.5 242.6 C 327.1 242.7 328.6 241.3 328.5 237.6 C 328.4 230.5 328.5 223.4 328.3 216.3 C 328.3 215.7 328.5 215.2 328.9 214.8 C 333 213.1 337.3 212.9 341.6 212.7 C 363.5 212.1 384.4 207 403.7 196.5 C 415.6 190.1 425.4 181.3 430.8 168.3 C 431.4 166.9 431.7 165 433.9 164.8 C 433.9 174.8 433.9 184.8 434 194.8 C 424.8 219.5 404.1 230.2 381.1 237.6 C 364.5 243 347.4 245 330 245 Z"
        fill="#fecb33"/>
    <path
        id="path_41"
        d="M 223 376 C 218 390.7 207.5 400.5 194.3 407.8 C 177.2 417.3 158.8 422.3 139.4 424.2 C 133.9 424.7 128.5 424.8 123 425 C 121.3 425 119.7 425 118 424.9 C 118 414.9 118 405 118 395 C 118 395 118 394.9 118 394.9 C 120.7 392.9 123.8 393.8 126.7 393.6 C 148.8 392.5 170.3 388.6 190.2 378.3 C 199.5 373.5 207.4 367.1 214.2 359.2 C 217.2 355.7 219.2 351.8 220.5 347.4 C 221 345.6 220.9 342.9 224 342.9 C 225.4 345.8 225.4 348.9 225.5 352 C 225.6 356.8 225.3 361.5 226 366.2 C 226.3 367.8 226.3 369.5 224.9 370.8 C 222.7 372 223 374.1 223 376 Z"
        fill="#fecb33"/>
    <path
        id="path_42"
        d="M 105 244 C 118 243.9 118 243.9 118 230.8 C 118 225.5 118 220.2 118 215 C 120.4 212.8 123.3 213.9 126 213.6 C 127.8 213.5 129.6 213.7 131.3 213.1 C 148.7 211.3 165.8 208.4 182.1 201.7 C 190.4 198.3 198.2 193.8 205.2 188.1 C 212.2 182.3 217.8 175.4 220.9 166.7 C 222.1 163.4 222.2 163.4 224.8 163.7 C 226.2 172.4 225.2 181.2 226.1 189.9 C 225.8 191.8 223.9 193.2 223.9 195.2 C 220.6 209.6 210.4 218.7 198.8 226.1 C 180.1 238.1 159 243.2 137.1 245.2 C 132.8 245.6 128.6 246.6 124.2 246.2 C 122.4 246.1 120.5 246.3 119 244.9 C 114.3 244.5 109.5 246 105 244 Z"
        fill="#fecb33"/>
    <path
        id="path_43"
        d="M 103 304 C 106.8 304 110.6 303.9 114.4 304 C 117.2 304.1 118.1 302.9 118.1 300.2 C 118 291.8 118.1 283.4 118 275 C 123.3 274.5 128.8 276.1 134 274 C 137.4 271.8 141.4 272.3 145.1 271.8 C 163.3 269 180.9 264.3 196.7 254.4 C 207.7 247.5 216.6 238.8 221.2 226.4 C 222.3 223.5 222.4 223.5 224.7 223.8 C 226.1 232.5 225.2 241.3 226.1 250 C 225.7 251.9 224.3 253.4 223.9 255.4 C 219.9 272.1 207.4 281.7 193.7 289.5 C 176.7 299.2 158 303.8 138.5 305.5 C 131.7 306.1 124.9 306.5 118.1 306.5 C 114.6 306.7 111.1 306.8 107.7 306.5 C 105.9 306.3 103.6 306.8 103 304 Z"
        fill="#fecb33"/>
    <path
        id="path_44"
        d="M 224 223 C 217.7 243 202.6 254.2 184.5 262.3 C 168.5 269.5 151.5 273.1 134 274.1 C 129.9 274.1 125.7 274.1 121.6 274.1 C 120.2 274.1 118.1 274.3 118.2 272.3 C 118.4 263.2 116.9 254.1 119 245.1 C 142.2 245.1 164.9 241.4 186.1 231.8 C 202.7 224.2 217.1 213.7 223 195.1 C 223.8 194.5 223.2 192.7 224.9 192.9 C 225.1 193.1 225.2 193.4 225.2 193.7 C 225.1 194 225.1 194.1 225 194.1 C 222.9 203.1 224.4 212.2 224 221.2 C 224.6 221.7 224.6 222.3 224 223 Z"
        fill="#fd9823"/>
    <path
        id="path_45"
        d="M 223 284 C 223.3 284 223.6 284 224 283.9 C 225.4 285.5 225.5 287.6 225.4 289.5 C 225.4 296.3 225.8 303 226 309.8 C 225.5 312 223.5 313.6 223.8 316 C 219.2 332.3 207 341.9 193.1 349.6 C 176.6 358.8 158.7 363.4 139.9 365.2 C 135.6 365.6 131.3 366.4 127 366.2 C 125.2 366.1 123.3 366.3 121.8 364.9 C 120.5 364.9 119.1 364.9 117.8 364.8 C 117 363.9 116.5 362.8 116.5 361.7 C 116.4 353.1 115.7 344.5 116.9 335.9 C 117.1 335.4 117.5 334.9 117.9 334.5 C 124.7 332.8 131.7 333.5 138.6 332.7 C 158.1 330.5 176.9 325.9 194 315.9 C 206 308.8 216 299.8 221.1 286.3 C 221.6 285.5 222.1 284.6 223 284 Z"
        fill="#fecb33"/>
    <path
        id="path_46"
        d="M 122 365 C 146.6 364.9 170.2 360.6 192.1 348.9 C 206 341.4 217.7 331.6 223 316 C 224.2 315.3 222.6 312.9 224.9 312.8 C 225.2 313 225.3 313.3 225.2 313.6 C 225.1 313.9 225.1 314 225 314 C 223.3 323.2 224.2 332.6 224 341.9 C 224 342.5 223.5 342.7 223.1 343 C 219.6 360.7 206.7 370.6 192.4 378.7 C 175.6 388.2 157 392.4 137.9 394.2 C 131.3 394.8 124.7 394.9 118.1 395 C 118.1 387.2 118.3 379.4 118 371.6 C 117.8 368.1 118.7 366 122 365 Z"
        fill="#fd9823"/>
    <path
        id="path_47"
        d="M 118 335 C 118 345 118 354.9 118 364.9 C 91.7 364.7 66.2 360.8 42.9 347.8 C 29.8 340.5 18.5 331.2 14 315.9 C 13.7 314.6 13.4 313.2 13.1 311.9 C 13.1 310.2 13.1 308.6 13.1 306.9 C 13.1 299.6 13.1 292.2 13.1 284.9 C 14.9 284.7 15.3 286.2 15.8 287.4 C 23 304.9 37.3 314.5 53.7 321.5 C 69.1 328.1 85.3 331.5 102 332.9 C 107.2 333.3 112.9 332.4 118 335 Z"
        fill="#fdda41"/>
    <path
        id="path_48"
        d="M 132 214 C 127.4 216 122.6 214.5 118 215 C 95.1 214 72.4 211.5 51.2 201.8 C 34.2 194.1 19.9 183.2 13 164.9 C 13 163.9 13 162.9 13 162 C 13 160.3 13 158.7 13 157 C 13 151.6 13 146.1 13 140.7 C 13 139.1 12.5 137.4 13.9 136 C 19 151.1 30.3 160.4 43.6 167.8 C 59.8 176.7 77.3 181.1 95.6 183.1 C 99.4 183.5 103.1 183.9 106.9 184 C 110.4 186.1 114.3 184.4 117.9 185 C 119.6 186.9 119.4 189.3 119.4 191.6 C 119.5 197 119.4 202.5 119.4 207.9 C 119.4 211 120.7 212.4 123.9 212.4 C 126.7 212.5 129.7 211.8 132 214 Z"
        fill="#fda732"/>
    <path
        id="path_49"
        d="M 118 335 C 96.3 334.7 75.1 331.8 54.8 323.5 C 36.1 315.8 20.5 304.8 13 285 C 13 284 13 283 13 282.1 C 13 280.4 13 278.8 13 277.1 C 13.6 270.1 11.9 263 14 256.1 C 18.9 271.8 30.8 281.2 44.4 288.6 C 59.4 296.8 75.7 301.2 92.7 303.2 C 96.2 303.6 99.6 304.1 103.1 304.1 C 108.3 306.2 113.8 304.5 119.1 305.1 C 119.9 315.1 119.9 325.1 119.1 335.1 C 118.7 335 118.3 335 118 335 Z"
        fill="#fda732"/>
    <path
        id="path_50"
        d="M 223 135 C 223 133.9 222.7 132.3 223.9 131.9 C 225.6 131.3 224.7 133.8 225.9 134 C 228.1 145.7 235.9 153.8 244.7 160.7 C 260.5 173.1 279.1 178.8 298.7 182 C 305.1 183 311.4 184.1 317.9 184 C 321.8 186 325.9 184.5 329.9 185 C 331.4 186.6 331.4 188.6 331.4 190.6 C 331.4 196.4 331.5 202.2 331.4 208 C 331.4 210.5 331.2 213 328.9 214.7 L 329 215 C 328.1 215.9 327 216.1 325.8 216.1 C 303.9 215.2 282.4 212.1 262.2 202.9 C 248.8 196.8 237.3 188.2 229.1 175.7 C 225.9 170.9 225.5 165.1 222.9 160.1 C 222 151.8 222.5 143.4 223 135 Z"
        fill="#fda732"/>
    <path
        id="path_51"
        d="M 329 214.8 C 331 204.9 329.5 194.9 330 185 C 330.7 185 331.3 185 332 185 C 337.3 183.6 342.7 185.5 348 184 C 367.5 181.7 386.6 177.7 404 167.9 C 416.5 160.9 427.3 152 432.5 137.9 C 432.8 137 432.9 136 433 135 C 433.3 135 433.6 134.9 434 134.9 C 434 144.9 434 154.9 433.9 164.9 C 425.8 186.5 408.4 197.6 388 205.1 C 372.3 210.8 356.2 214.1 339.4 214.1 C 336 214.1 332.6 215.6 329 214.8 Z"
        fill="#fd9823"/>
    <path
        id="path_52"
        d="M 348 184 C 342.8 186.1 337.3 184.5 332 185 C 337.2 182.9 342.7 184.5 348 184 Z"
        fill="#fda732"/>
    <path
        id="path_53"
        d="M 223 135 C 225.1 138.7 223.7 142.7 223.9 146.6 C 224.1 151.4 224 156.2 224 161 C 224.6 161.7 224.6 162.3 224 162.9 C 220.3 173.2 214.9 182.4 206.1 189.2 C 194.5 198.3 181.4 204.4 167.1 208.1 C 155.6 211.1 144 213.6 132 213.9 C 127.6 213.6 121.9 215.7 119.1 213 C 116 210 118.3 204.3 118 199.7 C 117.8 194.8 118 189.8 118 184.9 C 119 184.9 120 184.9 121 184.9 C 126.3 183.5 131.7 185.4 137 183.9 C 156.3 181.3 175.3 177.6 192.6 168.1 C 206.4 160.6 218.1 150.9 223 135 Z"
        fill="#fd9823"/>
    <path
        id="path_54"
        d="M 137 184 C 131.8 186.1 126.3 184.5 121 185 C 126.2 182.9 131.7 184.5 137 184 Z"
        fill="#fda732"/>
    <path
        id="path_55"
        d="M 429.6 125.4 C 430 125.9 430.5 126.2 430.5 126.6 C 430.5 126.9 430.1 127.2 429.9 127.6 C 429.6 127.3 429.2 127.1 429.1 126.7 C 429.1 126.4 429.4 126 429.6 125.4 Z"
        fill="#fecb33"/>
    <path
        id="path_56"
        d="M 396 271 C 405 271.1 405 271.1 405 279.9 C 405 334.3 405 388.7 405 443.1 C 405 450 405 450 398 450 C 378.4 449.3 361.6 441.5 346.9 429.2 C 333.2 417.8 323.5 403.4 318.6 386.2 C 310.5 357.7 315 331.3 332.3 307.3 C 345.4 289 363.6 278 385.2 272.5 C 388.7 271.6 392.4 271.5 396 271 Z"
        fill="#fdda41"/>
    <path
        id="path_57"
        d="M 224 162.9 C 224 162.3 224 161.6 224 161 C 227.1 165 227.2 170.3 229.9 174.5 C 239.2 188.9 252.6 197.9 268.3 203.9 C 285 210.3 302.2 213.9 320.1 214 C 323.1 214 326 214.6 329 214.9 C 331.1 223.9 329.6 233 329.9 242.1 C 330 243.9 328.3 243.9 326.9 243.9 C 323.3 243.9 319.6 243.9 316 243.9 C 291.2 242.6 267.8 236.8 247 222.5 C 236.6 215.3 229.2 205.8 225 193.9 C 225 193.6 225 193.3 225 192.9 C 224.4 192.2 224.4 191.6 225 190.9 C 223.5 181.7 224.2 172.3 224 162.9 Z"
        fill="#fdda41"/>
    <path
        id="path_58"
        d="M 119 335 C 116.8 327.4 118.5 319.5 118 311.8 C 117.9 309.5 117.6 307.1 119 305 C 144.5 305.1 169.2 301 191.9 288.8 C 206 281.2 218.1 271.2 223 254.9 C 223.8 254.3 223.1 252.1 225.2 252.9 C 225.6 253.6 225.6 254.3 225 254.9 C 223.2 258.3 224.2 262.1 224 265.7 C 223.8 271.8 224.4 277.9 223 284 C 220.6 295.8 212.8 303.9 203.9 310.9 C 187 324.1 167.1 329.9 146.2 333 C 137.2 334.4 128.1 335.2 119 335 Z"
        fill="#fd9823"/>
    <path
        id="path_59"
        d="M 225 255 C 225 254.4 225 253.7 224.9 253.1 C 224.3 252.4 224.4 251.7 225 251.1 C 223.5 241.8 224.2 232.4 224 223 C 224 222.4 224 221.7 224 221.1 C 227 225 227.1 230 229.6 234.2 C 237.8 248 250.4 256.5 264.6 262.6 C 280.9 269.6 298 273.6 315.8 274 C 317.1 274 318.8 273.7 319.3 275.2 C 319.8 276.4 318.3 277.2 317.5 278 C 311.2 284.2 306.1 291.4 301.6 299 C 300 301.7 298.2 302.5 295.5 301.9 C 274 297.7 253.8 290.6 237.7 275 C 233.1 270.5 229.3 265.1 227.1 258.9 C 226.6 257.4 226.3 255.9 225 255 Z"
        fill="#fdda41"/>
    <path
        id="path_60"
        d="M 223.1 343 C 223.4 342.6 223.7 342.3 224 341.9 C 225.1 342.7 225.6 344 226 345.3 C 230.6 360.6 241.5 370.4 254.9 378 C 264.5 383.4 274.7 387.3 285.4 389.9 C 286.9 390.3 288.4 390.4 288.9 392.2 C 291.8 402.8 296.2 412.7 301.9 423 C 294.5 422.8 288.3 420.7 282 419.1 C 265.4 414.7 250 407.7 237.8 395.3 C 231.2 388.6 226.3 380.8 225 371.1 C 223.7 362.5 224.1 353.9 224 345.3 C 224 344.5 223.4 343.8 223.1 343 Z"
        fill="#fdda41"/>
    <path
        id="path_61"
        d="M 225 314 C 225 313.7 225 313.4 224.9 313.1 C 224.3 312.4 224.4 311.7 224.9 311.1 C 223.5 302.1 224 293.1 223.9 284.1 C 224.6 281.9 225.3 282.7 225.7 284.1 C 231.5 305.7 248.5 315.8 267.1 323.9 C 272.7 326.4 278.6 328.1 284.6 329.7 C 287.7 330.5 287.9 331.6 287.4 334.5 C 286.2 341.3 284.4 348.1 284.9 355.2 C 285.2 358.8 283.5 359.7 280.4 358.7 C 265.5 354.2 251.5 347.8 239.8 337.2 C 232.8 330.9 228.3 322.8 225 314 Z"
        fill="#fdda41"/>
    <path
        id="path_62"
        d="M 225 191 C 225 191.7 225 192.3 225 193 C 224.3 193.7 223.7 194.3 223 195 C 222.9 193.3 223.2 191.8 225 191 Z"
        fill="#fda732"/>
    <path
        id="path_63"
        d="M 225 251 C 225 251.7 225 252.4 224.9 253 C 224.3 253.7 223.6 254.3 223 255 C 222.9 253.3 223.2 251.8 225 251 Z"
        fill="#fda732"/>
    <path
        id="path_64"
        d="M 225 311 C 225 311.7 225 312.4 225 313 C 224.4 314 223.7 315 223.1 315.9 C 223 314.1 222.7 312 225 311 Z"
        fill="#fda732"/>
</svg>
