<svg
    xmlns="http://www.w3.org/2000/svg"
    viewBox="0 0 60 30"
    id="vector">
    <defs>
        <clipPath id="clip_path_2">
            <path d="M 30 15 L 60 15 L 60 30 Z M 30 15 L 30 30 L 0 30 Z M 30 15 L 0 15 L 0 0 Z M 30 15 L 30 0 L 60 0 Z M 0 0"/>
        </clipPath>
    </defs>
    <path
        id="path"
        d="M 0 0 L 0 30 L 60 30 L 60 0 Z"
        fill="#00247d"/>
    <path
        id="path_1"
        d="M 0 0 L 60 30 M 60 0 L 0 30"
        fill="#000000"
        stroke="#ffffff"
        stroke-width="6"/>
    <g id="group">
        <path
            id="path_2"
            clip-path="url(#clip_path_2)"
            d="M 0 0 L 60 30 M 60 0 L 0 30"
            fill="#000000"
            stroke="#cf142b"
            stroke-width="4"/>
    </g>
    <path
        id="path_3"
        d="M 30 0 L 30 30 M 0 15 L 60 15"
        fill="#000000"
        stroke="#ffffff"
        stroke-width="10"/>
    <path
        id="path_4"
        d="M 30 0 L 30 30 M 0 15 L 60 15"
        fill="#000000"
        stroke="#cf142b"
        stroke-width="6"/>
</svg>
