<svg width="25" height="25" viewBox="0 0 25 25" fill="none" xmlns="http://www.w3.org/2000/svg">
    <path fill-rule="evenodd" clip-rule="evenodd"
        d="M12.1361 1.34395C12.4972 1.06308 13.0028 1.06308 13.3639 1.34395L22.3639 8.34395C22.6075 8.5334 22.75 8.82471 22.75 9.1333V20.1333C22.75 20.929 22.4339 21.692 21.8713 22.2546C21.3087 22.8172 20.5457 23.1333 19.75 23.1333H5.75C4.95435 23.1333 4.19129 22.8172 3.62868 22.2546C3.06607 21.692 2.75 20.929 2.75 20.1333V9.1333C2.75 8.82471 2.89247 8.5334 3.13606 8.34395L12.1361 1.34395ZM4.75 9.62239V20.1333C4.75 20.3985 4.85536 20.6529 5.04289 20.8404C5.23043 21.0279 5.48478 21.1333 5.75 21.1333H19.75C20.0152 21.1333 20.2696 21.0279 20.4571 20.8404C20.6446 20.6529 20.75 20.3985 20.75 20.1333V9.62239L12.75 3.40016L4.75 9.62239Z"
        fill="#007AFF" />
    <path fill-rule="evenodd" clip-rule="evenodd"
        d="M8.75 12.1333C8.75 11.581 9.19772 11.1333 9.75 11.1333H15.75C16.3023 11.1333 16.75 11.581 16.75 12.1333V22.1333C16.75 22.6856 16.3023 23.1333 15.75 23.1333C15.1977 23.1333 14.75 22.6856 14.75 22.1333V13.1333H10.75V22.1333C10.75 22.6856 10.3023 23.1333 9.75 23.1333C9.19772 23.1333 8.75 22.6856 8.75 22.1333V12.1333Z"
        fill="#007AFF" />
</svg>
