<svg
    xmlns="http://www.w3.org/2000/svg"
    viewBox="0 0 100 100"
    id="vector">
    <path
        id="path"
        d="M 81.951 37.723 L 51.653 14.057 C 50.68 13.297 49.319 13.297 48.346 14.057 L 18.049 37.723 C 17.393 38.235 17.01 39.022 17.01 39.858 L 17.01 77.047 C 17.01 82.267 21.238 86.513 26.435 86.513 L 73.565 86.513 C 78.763 86.513 82.991 82.267 82.991 77.047 L 82.991 39.857 C 82.99 39.021 82.605 38.234 81.951 37.723 Z M 57.406 81.104 L 42.593 81.104 L 42.593 52.703 L 57.406 52.703 L 57.406 81.104 Z M 77.605 77.047 C 77.605 79.285 75.793 81.105 73.564 81.105 L 62.792 81.105 L 62.792 50 C 62.792 48.506 61.585 47.296 60.1 47.296 L 39.9 47.296 C 38.413 47.296 37.208 48.506 37.208 50 L 37.208 81.104 L 26.435 81.104 C 24.208 81.104 22.395 79.285 22.395 77.046 L 22.395 41.18 L 50 19.618 L 77.605 41.18 L 77.605 77.047 Z"
        fill="#5b5d64"
        fill-rule="evenodd"/>
</svg>
