<svg id="vector" xmlns="http://www.w3.org/2000/svg" width="24" height="24"
    viewBox="0 0 56.037 56.037">
    <path fill="#000000" fill-rule="evenodd"
        d="M28.018,0C12.568,0 0,12.568 0,28.018c0,15.45 12.568,28.02 28.018,28.02c15.45,0 28.02,-12.569 28.02,-28.02C56.037,12.568 43.468,0 28.018,0zM30.332,51.293V43.44c0,-1.277 -1.036,-2.314 -2.314,-2.314c-1.277,0 -2.313,1.037 -2.313,2.314v7.853c-11.054,-1.09 -19.873,-9.907 -20.964,-20.961h7.854c1.278,0 2.313,-1.036 2.313,-2.314c0,-1.277 -1.035,-2.313 -2.313,-2.313H4.741C5.832,14.65 14.65,5.832 25.705,4.741v7.854c0,1.278 1.035,2.313 2.313,2.313c1.278,0 2.314,-1.035 2.314,-2.313V4.741c11.054,1.091 19.871,9.91 20.961,20.964H43.44c-1.277,0 -2.314,1.035 -2.314,2.313c0,1.278 1.037,2.314 2.314,2.314h7.853C50.202,41.386 41.386,50.202 30.332,51.293z"
        id="path_0" />
</svg>