<svg
    xmlns="http://www.w3.org/2000/svg"
    viewBox="0 0 104 87"
    id="vector">
    <path
        id="path"
        d="M 53.7 70.2 C 53.3 70.2 52.9 70 52.6 69.7 C 51.8 68.9 31.8 49.8 31.8 26.8 C 31.8 15.2 37.6 2.8 53.7 2.8 C 69.8 2.8 75.6 15.2 75.6 26.8 C 75.6 49.8 55.7 68.9 54.8 69.7 C 54.5 70 54.1 70.2 53.7 70.2 Z M 53.7 6.2 C 36.9 6.2 35.1 20.6 35.1 26.8 C 35.1 45.3 49.5 61.7 53.7 66.1 C 57.9 61.7 72.3 45.3 72.3 26.8 C 72.3 20.6 70.4 6.2 53.7 6.2 Z"
        fill="#4aba7c"/>
    <path
        id="path_1"
        d="M 53.7 40.2 C 46.2 40.2 40.1 34.1 40.1 26.6 C 40.1 19.1 46.2 13 53.7 13 C 61.2 13 67.3 19.1 67.3 26.6 C 67.3 34.1 61.2 40.2 53.7 40.2 Z M 53.7 16.3 C 48 16.3 43.4 20.9 43.4 26.6 C 43.4 32.3 48 36.8 53.7 36.8 C 59.4 36.8 64 32.2 64 26.5 C 64 20.8 59.3 16.3 53.7 16.3 Z"
        fill="#4aba7c"/>
    <path
        id="path_2"
        d="M 101.2 87 L 6.1 87 C 5.6 87 5.1 86.8 4.8 86.3 C 4.5 85.9 4.4 85.3 4.5 84.8 L 19.2 33.2 C 19.4 32.5 20.1 32 20.8 32 L 27.8 32 C 28.7 32 29.5 32.7 29.5 33.7 C 29.5 34.7 28.8 35.4 27.8 35.4 L 22 35.4 L 8.3 83.7 L 99 83.7 L 85.2 35.4 L 78.8 35.4 C 77.9 35.4 77.1 34.7 77.1 33.7 C 77.1 32.7 77.8 32 78.8 32 L 86.5 32 C 87.2 32 87.9 32.5 88.1 33.2 L 102.8 84.8 C 102.9 85.3 102.8 85.8 102.5 86.3 C 102.3 86.8 101.8 87 101.2 87 Z"
        fill="#4aba7c"/>
</svg>
