<svg id="vector" xmlns="http://www.w3.org/2000/svg" width="28.5" height="14.7"
    viewBox="0 0 28.5 14.7">
    <path fill="#000000"
        d="M26.4,6.4H2.1c-0.3,0 -0.6,-0.3 -0.6,-0.6V1.5c0,-0.3 0.3,-0.6 0.6,-0.6h24.3c0.3,0 0.6,0.3 0.6,0.6v4.3C27,6.2 26.7,6.4 26.4,6.4z"
        fill-opacity="0" stroke="#000000" stroke-width="1" id="path_0" />
    <path fill="#000000"
        d="M26.4,13.7H2.1c-0.3,0 -0.6,-0.3 -0.6,-0.6V8.8c0,-0.3 0.3,-0.6 0.6,-0.6h24.3c0.3,0 0.6,0.3 0.6,0.6v4.3C27,13.4 26.7,13.7 26.4,13.7z"
        fill-opacity="0" stroke="#000000" stroke-width="1" id="path_1" />
</svg>