<svg id="vector" xmlns="http://www.w3.org/2000/svg" width="220" height="139.5"
    viewBox="0 0 220 139.5">
    <path
        d="M198.9,64h-178c-6.6,0 -12,-5.4 -12,-12V21.5c0,-6.6 5.4,-12 12,-12h178c6.6,0 12,5.4 12,12V52C210.9,58.6 205.5,64 198.9,64z"
        fill-opacity="0" stroke="#000000" stroke-width="10" />
    <path
        d="M198.9,132h-178c-6.6,0 -12,-5.4 -12,-12V89.5c0,-6.6 5.4,-12 12,-12h178c6.6,0 12,5.4 12,12V120C210.9,126.6 205.5,132 198.9,132z"
        fill-opacity="0" stroke="#000000" stroke-width="10" />
</svg>
