<svg xmlns="http://www.w3.org/2000/svg" version="1.1" xmlns:xlink="http://www.w3.org/1999/xlink"
    width="512" height="512" x="0" y="0" viewBox="0 0 682.667 682.667"
    style="enable-background:new 0 0 512 512" xml:space="preserve"><g><defs stroke-width="22" style="stroke-width: 22;"><clipPath id="a" clipPathUnits="userSpaceOnUse" stroke-width="22" style="stroke-width: 22;"><path d="M0 512h512V0H0Z" fill="#000000" opacity="1" data-original="#000000" stroke-width="22" style="stroke-width: 22;"></path></clipPath></defs><g
    clip-path="url(#a)" transform="matrix(1.33333 0 0 -1.33333 0 682.667)" stroke-width="22"
    style="stroke-width: 22;"><path d="M0 0c-38.232 0-82.354 39.961-89.106 150H89.106C82.354 39.961 38.232 0 0 0Z" style="stroke-width: 22; stroke-linecap: round; stroke-linejoin: round; stroke-miterlimit: 10; stroke-dasharray: none; stroke-opacity: 1;" transform="translate(256 137)" fill="none" stroke="#000000" stroke-width="22" stroke-linecap="round" stroke-linejoin="round" stroke-miterlimit="10" stroke-dasharray="none" stroke-opacity="1" data-original="#000000"></path>
    <path d="M0 0v45c0 24.853 20.147 45 45 45s45-20.147 45-45V0"
        style="stroke-width: 22; stroke-linecap: round; stroke-linejoin: round; stroke-miterlimit: 10; stroke-dasharray: none; stroke-opacity: 1;"
        transform="translate(211 287)" fill="none" stroke="#000000" stroke-width="22"
        stroke-linecap="round" stroke-linejoin="round" stroke-miterlimit="10"
        stroke-dasharray="none" stroke-opacity="1" data-original="#000000"></path>
    <path d="M0 0v-30"
        style="stroke-width: 22; stroke-linecap: round; stroke-linejoin: round; stroke-miterlimit: 10; stroke-dasharray: none; stroke-opacity: 1;"
        transform="translate(256 227)" fill="none" stroke="#000000" stroke-width="22"
        stroke-linecap="round" stroke-linejoin="round" stroke-miterlimit="10"
        stroke-dasharray="none" stroke-opacity="1" data-original="#000000"></path>
    <path
        d="M0 0c-124.301 35.515-210 150.128-210 279.403V421L0 482l210-61V279.403C210 150.128 124.302 35.515 0 0Z"
        style="stroke-width: 22; stroke-linecap: round; stroke-linejoin: round; stroke-miterlimit: 10; stroke-dasharray: none; stroke-opacity: 1;"
        transform="translate(256 15)" fill="none" stroke="#000000" stroke-width="22"
        stroke-linecap="round" stroke-linejoin="round" stroke-miterlimit="10"
        stroke-dasharray="none" stroke-opacity="1" data-original="#000000"></path></g></g></svg>