<svg width="25" height="25" viewBox="0 0 25 25" fill="none" xmlns="http://www.w3.org/2000/svg">
<path fill-rule="evenodd" clip-rule="evenodd" d="M9.66653 2.45479C9.88742 2.96097 9.65615 3.55039 9.14996 3.77128C7.80255 4.35926 6.61969 5.26837 5.7048 6.4191C4.78991 7.56984 4.17083 8.92718 3.9017 10.3724C3.63256 11.8177 3.72157 13.3069 4.16093 14.7098C4.60029 16.1128 5.37663 17.3867 6.42208 18.4203C7.46752 19.4538 8.75024 20.2156 10.1581 20.6389C11.5659 21.0622 13.0561 21.1342 14.4982 20.8486C15.9403 20.563 17.2904 19.9284 18.4306 19.0005C19.5709 18.0725 20.4664 16.8793 21.039 15.5253C21.2541 15.0166 21.8408 14.7786 22.3495 14.9937C22.8581 15.2088 23.0961 15.7955 22.881 16.3042C22.1812 17.9591 21.0867 19.4174 19.6931 20.5516C18.2995 21.6858 16.6493 22.4614 14.8867 22.8105C13.1242 23.1596 11.3029 23.0716 9.5822 22.5542C7.8615 22.0368 6.29373 21.1058 5.01596 19.8425C3.73819 18.5793 2.78933 17.0222 2.25234 15.3076C1.71534 13.5929 1.60656 11.7727 1.9355 10.0063C2.26444 8.23987 3.02108 6.5809 4.13929 5.17445C5.25749 3.76799 6.70321 2.65686 8.35004 1.93821C8.85623 1.71732 9.44564 1.9486 9.66653 2.45479Z" fill="#484C52"/>
<path fill-rule="evenodd" clip-rule="evenodd" d="M12.0429 1.31731C12.2304 1.12977 12.4848 1.02441 12.75 1.02441C14.1945 1.02441 15.6249 1.30894 16.9595 1.86174C18.2941 2.41454 19.5067 3.2248 20.5282 4.24624C21.5496 5.26768 22.3599 6.48031 22.9127 7.8149C23.4655 9.14948 23.75 10.5799 23.75 12.0244C23.75 12.5767 23.3023 13.0244 22.75 13.0244H12.75C12.1977 13.0244 11.75 12.5767 11.75 12.0244V2.02441C11.75 1.7592 11.8554 1.50484 12.0429 1.31731ZM13.75 3.08014V11.0244H21.6943C21.6005 10.1858 21.3891 9.36291 21.0649 8.58026C20.6126 7.48833 19.9497 6.49618 19.114 5.66045C18.2782 4.82473 17.2861 4.16179 16.1942 3.7095C15.4115 3.38532 14.5886 3.1739 13.75 3.08014Z" fill="#484C52"/>
</svg>
