<svg width="25" height="25" viewBox="0 0 25 25" fill="none" xmlns="http://www.w3.org/2000/svg">
<g clip-path="url(#clip0_1229_1627)">
<path fill-rule="evenodd" clip-rule="evenodd" d="M9.5087 5.02441H15.9913C16.7963 5.0244 17.4606 5.02439 18.0018 5.06861C18.5639 5.11453 19.0806 5.2131 19.566 5.46039C20.3186 5.84388 20.9305 6.4558 21.314 7.20845C21.5613 7.69379 21.6599 8.21049 21.7058 8.77259C21.75 9.31378 21.75 9.97813 21.75 10.7831V15.2657C21.75 16.0707 21.75 16.7351 21.7058 17.2762C21.6599 17.8383 21.5613 18.355 21.314 18.8404C20.9305 19.593 20.3186 20.2049 19.566 20.5884C19.0806 20.8357 18.5639 20.9343 18.0018 20.9802C17.4606 21.0244 16.7963 21.0244 15.9913 21.0244H9.50873C8.70374 21.0244 8.03938 21.0244 7.49817 20.9802C6.93608 20.9343 6.41937 20.8357 5.93404 20.5884C5.18139 20.2049 4.56947 19.593 4.18597 18.8404C3.93868 18.355 3.84012 17.8383 3.79419 17.2762C3.74998 16.735 3.74999 16.0707 3.75 15.2657V10.7831C3.74999 9.97814 3.74998 9.31378 3.79419 8.77259C3.84012 8.21049 3.93868 7.69379 4.18597 7.20845C4.56947 6.4558 5.18139 5.84388 5.93404 5.46039C6.41937 5.2131 6.93608 5.11453 7.49817 5.06861C8.03937 5.02439 8.70373 5.0244 9.5087 5.02441ZM7.66104 7.06197C7.22262 7.09779 6.99842 7.16271 6.84202 7.2424C6.4657 7.43415 6.15973 7.74011 5.96799 8.11643C5.8883 8.27283 5.82337 8.49704 5.78755 8.93545C5.75078 9.38554 5.75 9.96784 5.75 10.8244V15.2244C5.75 16.081 5.75078 16.6633 5.78755 17.1134C5.82337 17.5518 5.8883 17.776 5.96799 17.9324C6.15973 18.3087 6.4657 18.6147 6.84202 18.8064C6.99842 18.8861 7.22262 18.951 7.66104 18.9869C8.11113 19.0236 8.69342 19.0244 9.55 19.0244H15.95C16.8066 19.0244 17.3889 19.0236 17.839 18.9869C18.2774 18.951 18.5016 18.8861 18.658 18.8064C19.0343 18.6147 19.3403 18.3087 19.532 17.9324C19.6117 17.776 19.6766 17.5518 19.7124 17.1134C19.7492 16.6633 19.75 16.081 19.75 15.2244V10.8244C19.75 9.96783 19.7492 9.38554 19.7124 8.93545C19.6766 8.49704 19.6117 8.27283 19.532 8.11643C19.3403 7.74011 19.0343 7.43415 18.658 7.2424C18.5016 7.16271 18.2774 7.09779 17.839 7.06197C17.3889 7.02519 16.8066 7.02441 15.95 7.02441H9.55C8.69342 7.02441 8.11113 7.02519 7.66104 7.06197Z" fill="#484C52"/>
<path fill-rule="evenodd" clip-rule="evenodd" d="M10.75 2.45441L10.75 3.02448L8.75 3.02435L8.75009 1.62242L9.02826 1.33231C9.27078 1.07939 9.63254 0.711569 10.2649 0.437203C10.8765 0.171856 11.6651 0.0244141 12.75 0.0244141C13.835 0.0244141 14.6236 0.171868 15.2352 0.437222C15.8675 0.711593 16.2293 1.07942 16.4718 1.33229L16.75 1.62243V3.02441H14.75V2.4544C14.6615 2.38533 14.5644 2.32633 14.4391 2.27196C14.1593 2.15053 13.6651 2.02441 12.75 2.02441C11.835 2.02441 11.3408 2.15052 11.0609 2.27195C10.9356 2.32633 10.8386 2.38534 10.75 2.45441Z" fill="#484C52"/>
<path fill-rule="evenodd" clip-rule="evenodd" d="M12.7505 17.0244C11.5597 17.0251 10.3434 16.7194 9.15 15.8244L10.35 14.2244C11.1566 14.8294 11.9386 15.0249 12.7495 15.0244C13.5603 15.024 14.344 14.8289 15.15 14.2244L16.35 15.8244C15.156 16.7199 13.9379 17.0238 12.7505 17.0244Z" fill="#484C52"/>
<path d="M7.75 11.5244C7.75 10.696 8.42157 10.0244 9.25 10.0244C10.0784 10.0244 10.75 10.696 10.75 11.5244C10.75 12.3528 10.0784 13.0244 9.25 13.0244C8.42157 13.0244 7.75 12.3528 7.75 11.5244Z" fill="#484C52"/>
<path d="M14.75 11.5244C14.75 10.696 15.4216 10.0244 16.25 10.0244C17.0784 10.0244 17.75 10.696 17.75 11.5244C17.75 12.3528 17.0784 13.0244 16.25 13.0244C15.4216 13.0244 14.75 12.3528 14.75 11.5244Z" fill="#484C52"/>
</g>
<defs>
<clipPath id="clip0_1229_1627">
<rect width="24" height="24" fill="white" transform="translate(0.75 0.0244141)"/>
</clipPath>
</defs>
</svg>
