<svg width="31" height="28" viewBox="0 0 31 28" fill="none" xmlns="http://www.w3.org/2000/svg">
<path d="M26.8368 19.9601H10.3228L6.81383 4.33105H29.75L26.8368 19.9601Z" stroke="#484C52" stroke-width="2" stroke-linecap="round" stroke-linejoin="round"/>
<path d="M13.9628 26.5249C14.4563 26.5249 14.8564 26.1051 14.8564 25.5872C14.8564 25.0693 14.4563 24.6494 13.9628 24.6494C13.4692 24.6494 13.0691 25.0693 13.0691 25.5872C13.0691 26.1051 13.4692 26.5249 13.9628 26.5249Z" stroke="#484C52" stroke-width="2" stroke-linecap="round" stroke-linejoin="round"/>
<path d="M22.8989 26.5249C23.3924 26.5249 23.7925 26.1051 23.7925 25.5872C23.7925 25.0693 23.3924 24.6494 22.8989 24.6494C22.4054 24.6494 22.0053 25.0693 22.0053 25.5872C22.0053 26.1051 22.4054 26.5249 22.8989 26.5249Z" stroke="#484C52" stroke-width="2" stroke-linecap="round" stroke-linejoin="round"/>
<path d="M27.9628 12.1455H19.6223" stroke="#484C52" stroke-width="2" stroke-linecap="round" stroke-linejoin="round"/>
<path d="M6.84959 4.4439L5.31853 2.84349C4.58071 2.06723 3.5921 1.60988 2.54831 1.56192L1.75 1.52441" stroke="#484C52" stroke-width="2" stroke-linecap="round" stroke-linejoin="round"/>
</svg>
