<svg width="25" height="25" viewBox="0 0 25 25" fill="none" xmlns="http://www.w3.org/2000/svg">
<path d="M6.34961 19.9448L7.87357 18.7256L7.88478 18.717C8.20249 18.4628 8.36281 18.3345 8.54168 18.2432C8.70216 18.1612 8.87328 18.1015 9.0498 18.0652C9.24877 18.0244 9.45603 18.0244 9.87207 18.0244H18.5531C19.671 18.0244 20.2306 18.0244 20.658 17.8066C21.0343 17.6149 21.3405 17.3086 21.5322 16.9323C21.75 16.5049 21.75 15.9459 21.75 14.828V7.22132C21.75 6.10341 21.75 5.54362 21.5322 5.11621C21.3405 4.73989 21.0337 4.43415 20.6574 4.2424C20.2296 4.02441 19.6703 4.02441 18.5502 4.02441H6.9502C5.83009 4.02441 5.26962 4.02441 4.8418 4.2424C4.46547 4.43415 4.15973 4.73989 3.96799 5.11621C3.75 5.54403 3.75 6.1045 3.75 7.22461V18.6956C3.75 19.7613 3.75 20.2941 3.96846 20.5677C4.15845 20.8057 4.44644 20.9442 4.75098 20.9439C5.10115 20.9435 5.51744 20.6105 6.34961 19.9448Z" stroke="#484C52" stroke-width="2" stroke-linecap="round" stroke-linejoin="round"/>
</svg>
