<svg height="512pt" viewBox="0 0 512 512" width="512pt" xmlns="http://www.w3.org/2000/svg"
    id="fi_1762682">
    <path
        d="m437.019531 74.980469c-48.351562-48.351563-112.640625-74.980469-181.019531-74.980469s-132.667969 26.628906-181.019531 74.980469c-48.351563 48.351562-74.980469 112.640625-74.980469 181.019531s26.628906 132.667969 74.980469 181.019531c48.351562 48.351563 112.640625 74.980469 181.019531 74.980469s132.667969-26.628906 181.019531-74.980469c48.351563-48.351562 74.980469-112.640625 74.980469-181.019531s-26.628906-132.667969-74.980469-181.019531zm-181.019531 407.019531c-124.617188 0-226-101.382812-226-226s101.382812-226 226-226 226 101.382812 226 226-101.382812 226-226 226zm0 0"></path>
    <path
        d="m283.9375 195.050781h-85.777344l14.726563-14.726562c5.855469-5.855469 5.855469-15.355469 0-21.210938-5.859375-5.859375-15.355469-5.859375-21.214844 0l-40.332031 40.332031c-5.859375 5.859376-5.859375 15.355469 0 21.210938l40.332031 40.335938c2.929687 2.929687 6.769531 4.394531 10.605469 4.394531 3.839844 0 7.679687-1.464844 10.609375-4.394531 5.855469-5.859376 5.855469-15.355469 0-21.214844l-14.730469-14.726563h85.78125c28.183594 0 51.113281 22.929688 51.113281 51.113281 0 28.183594-22.929687 51.113282-51.113281 51.113282h-52.460938c-8.285156 0-15 6.71875-15 15 0 8.285156 6.714844 15 15 15h52.460938c44.726562 0 81.113281-36.386719 81.113281-81.113282 0-44.726562-36.386719-81.113281-81.113281-81.113281zm0 0"></path>
</svg>