<svg
    xmlns="http://www.w3.org/2000/svg"
    viewBox="0 0 86 87"
    id="vector">
    <path
        id="path"
        d="M 28.1 51.2 C 20.4 51.2 14.1 44.9 14.1 37.2 L 14.1 25.8 C 14.1 18.1 20.4 11.8 28.1 11.8 C 35.8 11.8 42.1 18.1 42.1 25.8 L 42.1 37.2 C 42.1 44.9 35.8 51.2 28.1 51.2 Z M 28.1 14.3 C 21.8 14.3 16.6 19.4 16.6 25.8 L 16.6 37.2 C 16.6 43.5 21.7 48.7 28.1 48.7 C 34.4 48.7 39.6 43.6 39.6 37.2 L 39.6 25.8 C 39.6 19.5 34.4 14.3 28.1 14.3 Z"
        fill="#dcbf26"/>
    <path
        id="path_1"
        d="M 43.8 87 L 11.8 87 C 6.3 87 1.9 82.6 1.9 77.1 L 1.9 65.3 C 1.9 63.1 3.3 60.9 6.1 58.7 C 8.4 56.9 11.1 55.6 14.1 54.7 L 24 52 C 24.7 51.8 25.4 52.2 25.5 52.9 C 25.7 53.6 25.3 54.3 24.6 54.4 L 14.7 57.2 C 12 58 9.5 59.2 7.5 60.7 C 6 61.8 4.3 63.6 4.3 65.3 L 4.3 77.1 C 4.3 81.2 7.6 84.5 11.7 84.5 L 43.7 84.5 C 47.8 84.5 51.1 81.2 51.1 77.1 L 51.1 65.3 C 51.1 63.5 49.4 61.8 47.9 60.7 C 45.9 59.1 43.5 57.9 40.7 57.2 L 31.1 54.5 C 30.4 54.3 30 53.6 30.2 53 C 30.4 52.3 31.1 51.9 31.7 52.1 L 41.3 54.8 C 44.4 55.7 47.1 57 49.3 58.8 C 52.1 61 53.5 63.2 53.5 65.4 L 53.5 77.2 C 53.7 82.6 49.3 87 43.8 87 Z"
        fill="#dcbf26"/>
    <path
        id="path_2"
        d="M 24.3 54.4 C 23.6 54.4 23 53.8 23 53.1 L 23 49.8 C 23 49.1 23.6 48.5 24.3 48.5 C 25 48.5 25.6 49.1 25.6 49.8 L 25.6 53.1 C 25.6 53.9 25 54.4 24.3 54.4 Z"
        fill="#dcbf26"/>
    <path
        id="path_3"
        d="M 31.5 54.5 C 30.8 54.5 30.2 53.9 30.2 53.2 L 30.2 49.9 C 30.2 49.2 30.8 48.6 31.5 48.6 C 32.2 48.6 32.8 49.2 32.8 49.9 L 32.8 53.2 C 32.8 54 32.2 54.5 31.5 54.5 Z"
        fill="#dcbf26"/>
    <path
        id="path_4"
        d="M 27.8 67.7 C 23 67.7 19.1 62.6 19.1 56.2 C 19.1 55.5 19.2 54.8 19.3 54.1 C 19.4 53.4 20 52.9 20.7 53 C 21.4 53.1 21.9 53.7 21.8 54.4 C 21.7 55 21.7 55.6 21.7 56.2 C 21.7 61.1 24.5 65.2 27.9 65.2 C 31.3 65.2 34.1 61.2 34.1 56.2 C 34.1 55.6 34.1 55 34 54.4 C 33.9 53.7 34.4 53.1 35.1 53 C 35.8 52.9 36.4 53.4 36.5 54.1 C 36.6 54.8 36.7 55.5 36.7 56.2 C 36.5 62.6 32.6 67.7 27.8 67.7 Z"
        fill="#dcbf26"/>
    <path
        id="path_5"
        d="M 32.8 27.2 C 31.2 27.2 30 26.8 29.1 26.4 C 27.7 25.7 26.8 24.8 26 24 C 25.2 23.2 24.7 22.6 23.8 22.4 C 21.9 22 19.3 23.4 16.4 26.6 C 15.9 27.1 15.1 27.1 14.6 26.7 C 14.1 26.2 14.1 25.4 14.5 24.9 C 18.1 21 21.5 19.3 24.3 20 C 26 20.4 26.9 21.4 27.8 22.3 C 28.5 23 29.1 23.7 30.1 24.2 C 31.8 25 34.5 25.5 39.9 22.3 C 40.5 22 41.3 22.2 41.6 22.8 C 41.9 23.4 41.7 24.2 41.1 24.5 C 37.5 26.6 34.8 27.2 32.8 27.2 Z"
        fill="#dcbf26"/>
    <path
        id="path_6"
        d="M 58.6 40.6 C 50.9 40.6 44.6 34.3 44.6 26.6 L 44.6 15.2 C 44.6 7.5 50.9 1.2 58.6 1.2 C 66.3 1.2 72.6 7.5 72.6 15.2 L 72.6 26.6 C 72.6 34.3 66.3 40.6 58.6 40.6 Z M 58.6 3.8 C 52.3 3.8 47.1 8.9 47.1 15.3 L 47.1 26.7 C 47.1 33 52.2 38.2 58.6 38.2 C 64.9 38.2 70.1 33.1 70.1 26.7 L 70.1 15.2 C 70.1 8.9 65 3.8 58.6 3.8 Z"
        fill="#dcbf26"/>
    <path
        id="path_7"
        d="M 40.8 48.2 C 40.3 48.2 39.9 47.9 39.7 47.5 C 39.4 46.9 39.6 46.1 40.3 45.8 C 41.6 45.1 43.1 44.6 44.6 44.2 L 54.5 41.4 C 55.2 41.2 55.9 41.6 56 42.3 C 56.2 43 55.8 43.7 55.1 43.8 L 45.2 46.6 C 43.8 47 42.5 47.5 41.3 48.1 C 41.2 48.2 41 48.2 40.8 48.2 Z"
        fill="#dcbf26"/>
    <path
        id="path_8"
        d="M 74.3 76.4 L 56.8 76.4 C 56.1 76.4 55.5 75.8 55.5 75.1 C 55.5 74.4 56.1 73.8 56.8 73.8 L 74.4 73.8 C 78.5 73.8 81.8 70.5 81.8 66.4 L 81.8 54.8 C 81.8 53.1 80.1 51.3 78.6 50.2 C 76.6 48.6 74.2 47.4 71.4 46.7 L 61.8 44 C 61.1 43.8 60.7 43.1 60.9 42.5 C 61.1 41.8 61.8 41.4 62.4 41.6 L 72 44.3 C 75.1 45.2 77.8 46.5 80 48.3 C 82.8 50.5 84.2 52.7 84.2 54.9 L 84.2 66.7 C 84.2 72 79.8 76.4 74.3 76.4 Z"
        fill="#dcbf26"/>
    <path
        id="path_9"
        d="M 54.8 43.9 C 54.1 43.9 53.5 43.3 53.5 42.6 L 53.5 39.3 C 53.5 38.6 54.1 38 54.8 38 C 55.5 38 56.1 38.6 56.1 39.3 L 56.1 42.6 C 56.1 43.3 55.5 43.9 54.8 43.9 Z"
        fill="#dcbf26"/>
    <path
        id="path_10"
        d="M 62 44 C 61.3 44 60.7 43.4 60.7 42.7 L 60.7 39.4 C 60.7 38.7 61.3 38.1 62 38.1 C 62.7 38.1 63.3 38.7 63.3 39.4 L 63.3 42.7 C 63.3 43.4 62.7 44 62 44 Z"
        fill="#dcbf26"/>
    <path
        id="path_11"
        d="M 58.3 57.1 C 53.5 57.1 49.6 52 49.6 45.6 C 49.6 44.9 49.7 44.2 49.8 43.5 C 49.9 42.8 50.5 42.3 51.2 42.4 C 51.9 42.5 52.4 43.1 52.3 43.8 C 52.2 44.4 52.2 45 52.2 45.6 C 52.2 50.5 55 54.6 58.4 54.6 C 61.8 54.6 64.6 50.6 64.6 45.6 C 64.6 45 64.6 44.4 64.5 43.8 C 64.4 43.1 64.9 42.5 65.6 42.4 C 66.3 42.3 66.9 42.8 67 43.5 C 67.1 44.2 67.2 44.9 67.2 45.6 C 67 52 63.1 57.1 58.3 57.1 Z"
        fill="#dcbf26"/>
    <path
        id="path_12"
        d="M 63.3 16.7 C 61.7 16.7 60.5 16.3 59.6 15.9 C 58.2 15.2 57.3 14.3 56.5 13.5 C 55.7 12.7 55.2 12.1 54.3 11.9 C 52.4 11.5 49.8 12.9 46.9 16.1 C 46.4 16.6 45.6 16.6 45.1 16.2 C 44.6 15.7 44.6 14.9 45 14.4 C 48.6 10.5 51.9 8.8 54.8 9.5 C 56.5 9.9 57.4 10.9 58.3 11.8 C 59 12.5 59.6 13.2 60.6 13.7 C 62.3 14.5 64.9 15 70.4 11.8 C 71 11.5 71.8 11.7 72.1 12.3 C 72.4 12.9 72.2 13.7 71.6 14 C 68 16 65.3 16.7 63.3 16.7 Z"
        fill="#dcbf26"/>
</svg>
