<svg xmlns="http://www.w3.org/2000/svg" version="1.1" xmlns:xlink="http://www.w3.org/1999/xlink" width="512" height="512" x="0" y="0" viewBox="0 0 512 512" style="enable-background:new 0 0 512 512" xml:space="preserve"><g><path d="M170.303 215.74H64.45c-24.549 0-44.45-19.901-44.45-44.45V64.45C20 39.901 39.901 20 64.45 20h105.854c24.549 0 44.45 19.901 44.45 44.45v106.84c-.001 24.549-19.902 44.45-44.451 44.45zM447.55 215.74H341.697c-24.549 0-44.45-19.901-44.45-44.45V64.45c0-24.549 19.901-44.45 44.45-44.45H447.55C472.099 20 492 39.901 492 64.45v106.84c0 24.549-19.901 44.45-44.45 44.45zM170.303 492H64.45C39.901 492 20 472.099 20 447.55V340.71c0-24.549 19.901-44.45 44.45-44.45h105.854c24.549 0 44.45 19.901 44.45 44.45v106.84c-.001 24.549-19.902 44.45-44.451 44.45zM492 344.13v-3.42c0-24.549-19.901-44.45-44.45-44.45H341.697c-24.549 0-44.449 19.901-44.449 44.45v106.84c0 24.549 19.901 44.45 44.449 44.45H447.55c24.549 0 44.45-19.901 44.45-44.45v-3.42" style="stroke-width: 22; stroke-linecap: round; stroke-linejoin: round; stroke-miterlimit: 10;" fill="none" stroke="#000000" stroke-width="22" stroke-linecap="round" stroke-linejoin="round" stroke-miterlimit="10" data-original="#000000"></path></g></svg>