<svg width="30" height="30" viewBox="0 0 30 30" fill="none" xmlns="http://www.w3.org/2000/svg">
<path d="M20.3571 0C21.7779 0 23.1406 0.564412 24.1452 1.56907C25.1499 2.57373 25.7143 3.93634 25.7143 5.35714V9.85714C25.0292 9.50716 24.3115 9.2251 23.5714 9.015V8.57143H2.14286V20.3571C2.14286 21.2096 2.4815 22.0272 3.0843 22.63C3.6871 23.2328 4.50466 23.5714 5.35714 23.5714H9.015C9.22786 24.32 9.50857 25.0343 9.85714 25.7143H5.35714C3.93634 25.7143 2.57373 25.1499 1.56907 24.1452C0.564412 23.1406 0 21.7779 0 20.3571V5.35714C0 3.93634 0.564412 2.57373 1.56907 1.56907C2.57373 0.564412 3.93634 0 5.35714 0H20.3571ZM20.3571 2.14286H5.35714C4.50466 2.14286 3.6871 2.4815 3.0843 3.0843C2.4815 3.6871 2.14286 4.50466 2.14286 5.35714V6.42857H23.5714V5.35714C23.5714 4.50466 23.2328 3.6871 22.63 3.0843C22.0272 2.4815 21.2096 2.14286 20.3571 2.14286ZM30 20.3571C30 22.9146 28.9841 25.3673 27.1757 27.1757C25.3673 28.9841 22.9146 30 20.3571 30C17.7997 30 15.347 28.9841 13.5386 27.1757C11.7302 25.3673 10.7143 22.9146 10.7143 20.3571C10.7143 17.7997 11.7302 15.347 13.5386 13.5386C15.347 11.7302 17.7997 10.7143 20.3571 10.7143C22.9146 10.7143 25.3673 11.7302 27.1757 13.5386C28.9841 15.347 30 17.7997 30 20.3571ZM20.3571 15C20.073 15 19.8005 15.1129 19.5995 15.3138C19.3986 15.5147 19.2857 15.7873 19.2857 16.0714V20.3571C19.2857 20.6413 19.3986 20.9138 19.5995 21.1148C19.8005 21.3157 20.073 21.4286 20.3571 21.4286H23.5714C23.8556 21.4286 24.1281 21.3157 24.329 21.1148C24.53 20.9138 24.6429 20.6413 24.6429 20.3571C24.6429 20.073 24.53 19.8005 24.329 19.5995C24.1281 19.3986 23.8556 19.2857 23.5714 19.2857H21.4286V16.0714C21.4286 15.7873 21.3157 15.5147 21.1148 15.3138C20.9138 15.1129 20.6413 15 20.3571 15Z" fill="#4168FB"/>
</svg>
