<svg
    xmlns="http://www.w3.org/2000/svg"
    viewBox="0 0 318 305"
    id="vector">
    <defs>
        <clipPath id="clip_path">
            <path d="M 0 0 L 318 0 L 318 305.43 L 0 305.43 Z"/>
        </clipPath>
    </defs>
    <g id="group">
        <path
            id="path"
            clip-path="url(#clip_path)"
            d="M 67.39 294.92 L 250.36 294.92 C 268.03 294.92 276.86 294.92 283.61 291.48 C 289.54 288.45 294.37 283.63 297.39 277.69 C 300.83 270.94 300.83 262.11 300.83 244.44 L 300.83 93.02 C 300.83 75.35 300.83 66.52 297.39 59.77 C 294.37 53.84 289.54 49.01 283.61 45.98 C 276.86 42.55 268.03 42.55 250.36 42.55 L 67.39 42.55 C 49.72 42.55 40.89 42.55 34.14 45.98 C 28.21 49.01 23.38 53.84 20.36 59.77 C 16.92 66.52 16.92 75.35 16.92 93.02 L 16.92 244.44 C 16.92 262.11 16.92 270.94 20.36 277.69 C 23.38 283.63 28.21 288.45 34.14 291.48 C 40.89 294.92 49.72 294.92 67.39 294.92 Z M 237.74 11 L 237.74 42.55 M 80.01 11 L 80.01 42.55 M 111.56 200.28 L 143.1 231.82 L 206.19 168.73 M 16.92 105.64 L 300.83 105.64"
            fill="none"
            stroke="#904bc5"
            stroke-width="19"
            stroke-linecap="round"
            stroke-linejoin="round"/>
    </g>
</svg>
