<svg id="vector" xmlns="http://www.w3.org/2000/svg" width="580.13" height="305.798"
    viewBox="0 0 580.13 305.798">
    <defs>
        <linearGradient gradientUnits="userSpaceOnUse" y1="88.6465" x1="164.502" y2="120.4115"
            x2="404.8569" id="gradient_0">
            <stop offset="0" stop-color="#0078F5FF" />
            <stop offset="1" stop-color="#003298FF" />
        </linearGradient>
        <linearGradient gradientUnits="userSpaceOnUse" y1="63.9873" x1="167.7617" y2="95.7521"
            x2="408.1151" id="gradient_1">
            <stop offset="0" stop-color="#0078F5FF" />
            <stop offset="1" stop-color="#003298FF" />
        </linearGradient>
        <linearGradient gradientUnits="userSpaceOnUse" y1="72.6655" x1="166.624" y2="104.4285"
            x2="406.9636" id="gradient_2">
            <stop offset="0" stop-color="#0078F5FF" />
            <stop offset="1" stop-color="#003298FF" />
        </linearGradient>
    </defs>
    <path fill="url(#gradient_0)"
        d="M224.343,69.368c-15.237,-0.244 -27.513,11.825 -27.674,26.956c0.184,14.935 11.602,27.123 26.907,27.3c15.115,0.175 27.437,-11.864 27.441,-27.156C251.023,81.41 239.218,69.606 224.343,69.368zM223.942,107.125c-6.094,0.332 -10.766,-4.977 -10.754,-10.531c0.013,-5.957 4.963,-11.125 10.855,-10.92c6.034,0.209 10.59,4.812 10.702,10.845C234.842,101.713 230.324,107.43 223.942,107.125z"
        id="path_0" />
    <path fill="url(#gradient_1)"
        d="M446.865,3.063c-8.531,6.212 -17.996,10.368 -28.332,12.42c-8.095,1.608 -16.181,3.602 -24.366,4.297c-11.533,0.981 -23.153,0.966 -34.74,1.292c-8.363,0.236 -16.799,-0.258 -25.073,0.693c-5.899,0.677 -11.757,2.784 -17.328,5.014c-10.919,4.374 -19.91,11.577 -27.579,20.452c-1.356,1.57 -2.67,3.175 -3.966,4.719h-0.146c-1.295,-1.544 -2.61,-3.149 -3.967,-4.719c-7.666,-8.875 -16.66,-16.078 -27.579,-20.452c-5.571,-2.23 -11.428,-4.337 -17.326,-5.014c-8.276,-0.951 -16.71,-0.457 -25.073,-0.693c-11.587,-0.326 -23.208,-0.31 -34.743,-1.292c-8.185,-0.696 -16.271,-2.689 -24.363,-4.297c-10.336,-2.052 -19.801,-6.208 -28.332,-12.42c-1.222,-0.891 -2.26,-2.036 -3.385,-3.063c3.47,11.075 9.343,20.601 16.854,29.129c7.639,8.67 17.02,14.902 28.059,19.094c-9.823,11.601 -14.981,24.473 -16.801,38.81c-0.989,7.8 -0.534,15.466 0.736,23.229c1.365,8.353 4.062,16.167 8.239,23.389c7.073,12.234 16.892,21.858 29.143,28.969c6.969,4.043 14.437,7.149 22.343,8.156c9.194,1.168 18.546,1.262 27.837,1.454c2.482,0.052 5.214,-0.812 7.443,-1.99c5.278,-2.791 7.879,-9.576 6.382,-15.443c-1.737,-6.814 -6.026,-10.483 -12.89,-10.744c-4.484,-0.171 -8.978,-0.06 -13.465,-0.07c-7.36,-0.021 -14.383,-1.377 -21.021,-4.743c-12.712,-6.448 -21.261,-16.379 -25.107,-30.098c-3.181,-11.359 -2.358,-22.445 3.036,-33.139c6.816,-13.523 17.419,-22.124 32.162,-25.713c10.356,-2.521 20.37,-1.534 29.903,3.007c18.079,8.61 27.521,23.238 27.989,43.109c0.467,19.976 0.045,39.975 0.166,59.96c0.017,2.792 0.476,5.743 1.472,8.334c1.948,5.063 7.094,8.145 12.319,7.854l0,0c0.015,0 0.029,-0.002 0.043,0c0.013,-0.002 0.027,0 0.042,0l0,0c5.226,0.29 10.373,-2.792 12.321,-7.854c0.997,-2.591 1.456,-5.542 1.473,-8.334c0.12,-19.985 -0.305,-39.984 0.165,-59.96c0.468,-19.871 9.91,-34.499 27.989,-43.109c9.533,-4.541 19.545,-5.528 29.901,-3.007c14.745,3.589 25.346,12.19 32.164,25.713c5.391,10.693 6.214,21.779 3.033,33.139c-3.844,13.718 -12.394,23.649 -25.105,30.098c-6.639,3.366 -13.661,4.723 -21.021,4.743c-4.489,0.011 -8.981,-0.101 -13.465,0.07c-6.866,0.261 -11.155,3.93 -12.893,10.744c-1.497,5.867 1.104,12.652 6.385,15.443c2.227,1.179 4.961,2.042 7.442,1.99c9.29,-0.192 18.642,-0.286 27.838,-1.454c7.906,-1.007 15.371,-4.113 22.341,-8.156c12.253,-7.11 22.072,-16.734 29.145,-28.969c4.176,-7.222 6.872,-15.036 8.237,-23.389c1.27,-7.763 1.727,-15.429 0.736,-23.229c-1.818,-14.336 -6.976,-27.209 -16.799,-38.81c11.037,-4.192 20.418,-10.424 28.057,-19.094c7.514,-8.528 13.385,-18.054 16.854,-29.129C449.123,1.026 448.085,2.171 446.865,3.063z"
        id="path_1" />
    <path fill="url(#gradient_2)"
        d="M347.239,123.623c15.304,-0.177 26.724,-12.365 26.907,-27.3c-0.163,-15.131 -12.438,-27.2 -27.676,-26.956c-14.874,0.239 -26.678,12.042 -26.674,27.099C319.804,111.759 332.124,123.798 347.239,123.623zM346.772,85.674c5.89,-0.205 10.841,4.963 10.854,10.92c0.011,5.555 -4.659,10.863 -10.755,10.531c-6.383,0.304 -10.899,-5.412 -10.804,-10.607C336.182,90.485 340.738,85.883 346.772,85.674z"
        id="path_2" />
    <path fill="#013299"
        d="M0,251.374c0,-5.274 1.005,-10.255 3.014,-14.945c2.01,-4.688 4.729,-8.77 8.164,-12.245c3.432,-3.474 7.493,-6.217 12.183,-8.227c4.688,-2.01 9.671,-3.015 14.946,-3.015s10.255,1.005 14.945,3.015c4.688,2.01 8.77,4.753 12.245,8.227c3.474,3.476 6.217,7.557 8.227,12.245c2.009,4.69 3.014,9.671 3.014,14.945c0,5.275 -1.005,10.258 -3.014,14.945c-2.009,4.69 -4.753,8.751 -8.227,12.183c-3.475,3.435 -7.557,6.154 -12.245,8.164c-4.69,2.01 -9.67,3.014 -14.945,3.014s-10.258,-1.004 -14.946,-3.014c-4.69,-2.01 -8.75,-4.729 -12.183,-8.164c-3.434,-3.432 -6.154,-7.492 -8.164,-12.183C1.005,261.632 0,256.649 0,251.374zM21.1,251.625c0,2.43 0.439,4.69 1.319,6.782c0.879,2.094 2.113,3.937 3.705,5.526c1.589,1.592 3.432,2.826 5.526,3.705c2.092,0.879 4.353,1.318 6.782,1.318c2.427,0 4.709,-0.439 6.845,-1.318s3.976,-2.113 5.526,-3.705c1.548,-1.59 2.783,-3.433 3.705,-5.526c0.92,-2.092 1.382,-4.353 1.382,-6.782c0,-2.427 -0.461,-4.709 -1.382,-6.845c-0.922,-2.135 -2.157,-3.976 -3.705,-5.525c-1.55,-1.549 -3.391,-2.783 -5.526,-3.705c-2.135,-0.921 -4.417,-1.382 -6.845,-1.382c-2.43,0 -4.69,0.461 -6.782,1.382c-2.094,0.922 -3.937,2.156 -5.526,3.705c-1.592,1.55 -2.826,3.391 -3.705,5.525C21.539,246.916 21.1,249.198 21.1,251.625z"
        id="path_3" />
    <path fill="#013299"
        d="M128.23,278.754c0,3.35 -1.026,5.902 -3.077,7.661c-2.053,1.758 -4.501,2.637 -7.347,2.637c-2.763,0 -5.171,-0.879 -7.222,-2.637c-2.052,-1.759 -3.077,-4.312 -3.077,-7.661v-43.832h-7.285c-3.265,0 -5.82,-1.024 -7.661,-3.077c-1.843,-2.051 -2.763,-4.5 -2.763,-7.348c0,-2.845 0.92,-5.294 2.763,-7.347c1.841,-2.051 4.396,-3.077 7.661,-3.077h35.041c3.266,0 5.818,1.026 7.661,3.077c1.841,2.053 2.763,4.502 2.763,7.347c0,2.848 -0.922,5.297 -2.763,7.348c-1.843,2.053 -4.396,3.077 -7.661,3.077h-7.033V278.754z"
        id="path_4" />
    <path fill="#013299"
        d="M185.5,278.754c0,3.35 -1.026,5.902 -3.077,7.661c-2.053,1.758 -4.501,2.637 -7.347,2.637c-2.763,0 -5.171,-0.879 -7.222,-2.637c-2.053,-1.759 -3.077,-4.312 -3.077,-7.661v-53.126c0,-4.02 0.71,-6.928 2.135,-8.729c1.423,-1.8 4.019,-2.7 7.787,-2.7c3.433,0 6.048,0.545 7.85,1.632c1.8,1.09 3.454,2.597 4.961,4.521l13.69,17.458l13.564,-17.583c1.423,-1.841 3.034,-3.307 4.835,-4.396c1.799,-1.087 4.164,-1.632 7.096,-1.632c3.768,0 6.405,0.9 7.913,2.7c1.507,1.801 2.261,4.709 2.261,8.729v53.126c0,3.35 -1.026,5.902 -3.077,7.661c-2.053,1.758 -4.502,2.637 -7.347,2.637c-2.763,0 -5.171,-0.879 -7.222,-2.637c-2.053,-1.759 -3.077,-4.312 -3.077,-7.661v-31.649l-9.294,12.308c-2.009,2.512 -4.103,3.768 -6.279,3.768c-2.261,0 -4.313,-1.297 -6.154,-3.894l-8.917,-12.182V278.754z"
        id="path_5" />
    <path fill="#000000"
        d="M268.069,276.692l5.414,-3.249c3.811,7.017 8.214,10.525 13.21,10.525c2.136,0 4.144,-0.498 6.021,-1.494s3.305,-2.332 4.287,-4.007c0.982,-1.674 1.473,-3.45 1.473,-5.327c0,-2.137 -0.723,-4.229 -2.166,-6.28c-1.992,-2.829 -5.629,-6.236 -10.914,-10.222c-5.313,-4.013 -8.619,-6.915 -9.918,-8.705c-2.252,-3.003 -3.378,-6.251 -3.378,-9.745c0,-2.772 0.664,-5.299 1.993,-7.58c1.328,-2.28 3.197,-4.078 5.608,-5.392c2.411,-1.313 5.031,-1.971 7.861,-1.971c3.002,0 5.811,0.743 8.424,2.23s5.377,4.223 8.295,8.207l-5.197,3.941c-2.398,-3.176 -4.439,-5.269 -6.129,-6.28c-1.689,-1.01 -3.529,-1.516 -5.523,-1.516c-2.569,0 -4.67,0.779 -6.301,2.339c-1.632,1.56 -2.447,3.479 -2.447,5.761c0,1.386 0.288,2.729 0.866,4.027c0.577,1.3 1.631,2.715 3.162,4.245c0.837,0.809 3.58,2.931 8.23,6.366c5.514,4.071 9.297,7.695 11.348,10.871c2.049,3.177 3.074,6.367 3.074,9.572c0,4.62 -1.754,8.634 -5.262,12.041s-7.775,5.11 -12.799,5.11c-3.87,0 -7.378,-1.033 -10.525,-3.097C273.627,285.001 270.726,281.543 268.069,276.692z"
        id="path_6" />
    <path fill="#000000"
        d="M317.203,241.437h6.41l16.194,36.287l15.726,-36.287h6.454l-28.109,64.361h-6.405l9.072,-20.808L317.203,241.437z"
        id="path_7" />
    <path fill="#000000"
        d="M397.952,246.591l-3.898,4.027c-3.243,-3.146 -6.413,-4.721 -9.51,-4.721c-1.969,0 -3.655,0.65 -5.059,1.949c-1.404,1.3 -2.106,2.815 -2.106,4.548c0,1.53 0.579,2.988 1.736,4.374c1.157,1.415 3.588,3.075 7.291,4.981c4.515,2.339 7.581,4.591 9.202,6.756c1.591,2.195 2.387,4.664 2.387,7.407c0,3.869 -1.359,7.146 -4.078,9.831s-6.116,4.028 -10.193,4.028c-2.719,0 -5.314,-0.593 -7.786,-1.776c-2.473,-1.184 -4.519,-2.814 -6.138,-4.894l3.811,-4.331c3.098,3.494 6.382,5.24 9.855,5.24c2.431,0 4.499,-0.779 6.207,-2.339c1.708,-1.559 2.562,-3.393 2.562,-5.5c0,-1.732 -0.564,-3.277 -1.692,-4.635c-1.129,-1.328 -3.675,-3.003 -7.639,-5.024c-4.254,-2.193 -7.147,-4.359 -8.682,-6.496c-1.533,-2.137 -2.3,-4.576 -2.3,-7.32c0,-3.58 1.222,-6.554 3.666,-8.922c2.443,-2.367 5.53,-3.552 9.263,-3.552C389.188,240.224 393.556,242.346 397.952,246.591z"
        id="path_8" />
    <path fill="#000000"
        d="M418.413,223.938h6.063v17.498h9.615v5.241h-9.615v41.882h-6.063v-41.882h-8.272v-5.241h8.272V223.938z"
        id="path_9" />
    <path fill="#000000"
        d="M487.295,272.924l5.111,2.686c-1.677,3.292 -3.612,5.948 -5.81,7.97c-2.196,2.021 -4.667,3.559 -7.413,4.612s-5.853,1.581 -9.32,1.581c-7.688,0 -13.699,-2.519 -18.034,-7.558s-6.503,-10.734 -6.503,-17.087c0,-5.977 1.835,-11.305 5.506,-15.981c4.652,-5.948 10.88,-8.923 18.684,-8.923c8.034,0 14.45,3.047 19.247,9.139c3.41,4.303 5.145,9.674 5.202,16.112h-42.401c0.115,5.474 1.864,9.96 5.246,13.46c3.383,3.5 7.561,5.251 12.533,5.251c2.398,0 4.733,-0.417 7.003,-1.252c2.269,-0.834 4.198,-1.941 5.789,-3.322C483.725,278.231 485.445,276.002 487.295,272.924zM487.295,260.233c-0.81,-3.233 -1.987,-5.817 -3.534,-7.752s-3.593,-3.494 -6.136,-4.678c-2.545,-1.184 -5.219,-1.776 -8.022,-1.776c-4.626,0 -8.602,1.487 -11.926,4.461c-2.429,2.166 -4.265,5.414 -5.507,9.745H487.295z"
        id="path_10" />
    <path fill="#000000"
        d="M509.661,241.437h6.064v8.143c2.109,-3.003 4.277,-5.197 6.504,-6.583c3.064,-1.848 6.287,-2.772 9.67,-2.772c2.283,0 4.451,0.448 6.503,1.343c2.053,0.896 3.73,2.087 5.03,3.573c1.301,1.487 2.429,3.616 3.383,6.389c2.016,-3.696 4.536,-6.504 7.562,-8.424c3.024,-1.92 6.28,-2.881 9.765,-2.881c3.256,0 6.129,0.823 8.621,2.469c2.491,1.646 4.342,3.941 5.552,6.887s1.815,7.363 1.815,13.253v25.728h-6.194v-25.728c0,-5.052 -0.359,-8.524 -1.079,-10.416c-0.72,-1.891 -1.949,-3.414 -3.691,-4.569c-1.741,-1.154 -3.819,-1.732 -6.237,-1.732c-2.936,0 -5.619,0.866 -8.051,2.599c-2.433,1.732 -4.21,4.043 -5.332,6.93c-1.122,2.888 -1.683,7.71 -1.683,14.466v18.451h-6.063v-24.125c0,-5.688 -0.354,-9.55 -1.062,-11.585c-0.708,-2.036 -1.942,-3.667 -3.703,-4.895c-1.762,-1.227 -3.854,-1.841 -6.28,-1.841c-2.801,0 -5.421,0.845 -7.86,2.534c-2.44,1.688 -4.245,3.963 -5.414,6.821c-1.17,2.858 -1.754,7.232 -1.754,13.123v19.967h-6.064V241.437z"
        id="path_11" />
</svg>