<?xml version="1.0" encoding="utf-8"?>
<!-- Generator: Adobe Illustrator 27.5.0, SVG Export Plug-In . SVG Version: 6.00 Build 0)  -->
<svg version="1.1" xmlns="http://www.w3.org/2000/svg" xmlns:xlink="http://www.w3.org/1999/xlink" x="0px" y="0px"
	 viewBox="0 0 3710 3710" style="enable-background:new 0 0 3710 3710;" xml:space="preserve">
<g id="Background">
	<g>
		<g>
			<rect style="fill:#FFFFFF;" width="3710" height="3710"/>
		</g>
	</g>
</g>
<g id="Illustration">
	<g>
		<linearGradient id="SVGID_1_" gradientUnits="userSpaceOnUse" x1="3476.1218" y1="3684.0583" x2="1540.6379" y2="1623.7053">
			<stop  offset="0" style="stop-color:#DAE3FE"/>
			<stop  offset="1" style="stop-color:#E9EFFD"/>
		</linearGradient>
		<path style="fill:url(#SVGID_1_);" d="M2894.994,2857.453c-71.45,73.648-135.381,116.941-184.329,149.625
			c-477.379,318.75-1023.075,226.879-1191.791,195.477c-272.202-50.663-501.978-86.403-699.397-264.763
			c-448.595-405.288-426.776-1250.749-83.995-1774.475c40.644-62.099,382.906-569.438,929.784-640.927
			c13.376-1.749,23.356-2.744,32.097-3.67c84.601-8.957,608.854-56.232,1036.331,301.908
			c61.191,51.266,159.666,143.736,250.983,284.769C3318.576,1621.078,3319.634,2419.752,2894.994,2857.453z"/>
		<g>
			<path style="fill:#91B3FA;" d="M657.363,505.162c5.869-16.877,30.517-14.664,33.208,3.001
				c26.017,170.784,108.265,616.473,288.019,869.718c292.681,412.341,443.764,1042.043,188.741,1327.21
				C1167.331,2705.091,17.928,2344.099,657.363,505.162z"/>
			<path style="opacity:0.43;fill:#FFFFFF;" d="M665.625,745.358c-0.056,4.392,0.22,9.301,0.377,14.015l0.729,14.273l1.779,28.54
				c1.293,19.026,2.786,38.037,4.335,57.043c3.203,38.007,6.881,75.972,10.907,113.899c7.971,75.859,17.402,151.563,28.289,227.05
				c22.022,150.925,48.917,301.178,83.365,449.729c17.51,74.193,35.804,148.223,56.986,221.453c2.497,9.198,5.214,18.329,8,27.441
				l8.246,27.367l8.246,27.367c2.819,9.101,5.857,18.13,8.778,27.2c5.956,18.097,11.643,36.288,17.821,54.309l18.888,53.947
				c1.585,4.492,3.088,9.014,4.738,13.482l5.044,13.369l10.084,26.739l10.084,26.742c3.472,8.87,7.177,17.646,10.756,26.473
				l10.822,26.45c3.685,8.783,7.039,17.712,11.042,26.356l23.246,52.214c31.896,69.211,67.082,136.895,106.132,202.411l0.01,0.016
				c0.476,0.796,0.216,1.828-0.581,2.302c-0.788,0.469-1.802,0.22-2.284-0.551c-40.542-64.786-76.582-132.301-109.581-201.246
				l-23.79-52.162c-4.095-8.638-7.538-17.556-11.311-26.333l-11.098-26.43c-3.669-8.822-7.465-17.594-11.029-26.458l-10.356-26.727
				l-10.356-26.729l-5.178-13.365c-1.697-4.466-3.245-8.985-4.876-13.475c-52.244-143.69-94.174-290.966-128.377-439.883
				l-12.535-55.916l-11.692-56.095c-4.026-18.672-7.396-37.474-11.108-56.21l-5.444-28.125l-5.076-28.193
				c-13.657-75.158-25.782-150.597-35.974-226.295c-10.258-75.686-19.311-151.537-26.422-227.576
				c-3.505-38.025-6.661-76.08-9.346-114.17c-1.283-19.049-2.52-38.101-3.551-57.168l-1.385-28.613l-0.535-14.322
				c-0.079-4.822-0.331-9.447-0.151-14.596c0.033-0.92,0.807-1.641,1.726-1.608c0.909,0.031,1.621,0.783,1.608,1.685
				L665.625,745.358z"/>
		</g>
		<g>
			<path style="fill:#7D97F4;" d="M1000.95,458.674c6.761-8.095,19.91-1.732,17.711,8.584
				c-21.259,99.73-68.81,362.984-22.378,540.315c75.601,288.735,27.675,667.955-172.624,772.223
				C823.658,1779.795,264.285,1340.71,1000.95,458.674z"/>
			<path style="opacity:0.43;fill:#FFFFFF;" d="M956.013,593.355c-0.86,2.281-1.742,5.106-2.606,7.729l-2.514,8.044l-4.847,16.159
				c-3.183,10.789-6.3,21.6-9.362,32.427c-6.071,21.671-11.872,43.415-17.474,65.21c-11.268,43.573-21.753,87.344-31.358,131.304
				c-19.019,87.949-35.574,176.453-47.4,265.618c-5.726,44.595-11.173,89.237-14.78,134.05c-3.58,44.803-6.163,89.697-6.917,134.631
				c-0.725,44.92-0.279,89.895,2.776,134.735c2.944,44.841,8.079,89.524,15.636,133.878l0.003,0.02
				c0.158,0.914-0.459,1.782-1.375,1.938c-0.893,0.153-1.742-0.435-1.926-1.314c-9.211-44.196-15.203-89.026-19.272-134.006
				c-3.76-45.023-4.903-90.209-4.863-135.369c1.007-90.332,8.42-180.503,20.657-269.927c6.028-44.733,13.526-89.244,21.648-133.622
				c8.164-44.372,17.264-88.573,27.581-132.487c10.255-43.924,21.175-87.692,33.264-131.141
				c6.084-21.715,12.364-43.371,18.914-64.948c3.314-10.778,6.628-21.553,10.107-32.281l5.329-16.059l2.756-8.008
				c0.991-2.691,1.808-5.24,3.068-8.177c0.361-0.847,1.339-1.237,2.185-0.875c0.82,0.351,1.214,1.286,0.902,2.115L956.013,593.355z"
				/>
		</g>
		<g>
			<g>
				
					<linearGradient id="SVGID_00000181062606431687144590000003424891079139292832_" gradientUnits="userSpaceOnUse" x1="991.4845" y1="2662.3096" x2="2243.3267" y2="185.0718" gradientTransform="matrix(0.9848 -0.1735 0.1735 0.9848 -83.3804 158.6002)">
					<stop  offset="0" style="stop-color:#09005D"/>
					<stop  offset="1" style="stop-color:#1A0F91"/>
				</linearGradient>
				<path style="fill:url(#SVGID_00000181062606431687144590000003424891079139292832_);" d="M1402.651,1899.476
					c-93.653-531.542,86.909-1030.316,421.29-1267.219c-110.582-30.318-225.264-36.029-340.484-16.991
					c-591.142,97.675-855.32,719.286-735.463,1399.555c119.857,680.269,643.462,1156.601,1169.505,1063.917
					c115.009-20.264,220.612-66.049,314.173-132.336C1836.461,2838.045,1496.304,2431.017,1402.651,1899.476z"/>
				<g>
					
						<linearGradient id="SVGID_00000095339079293814203530000008586427437597028015_" gradientUnits="userSpaceOnUse" x1="574.8773" y1="2311.7715" x2="1749.5599" y2="-12.7774" gradientTransform="matrix(0.9848 -0.1735 0.1735 0.9848 -83.3804 158.6002)">
						<stop  offset="0" style="stop-color:#09005D"/>
						<stop  offset="1" style="stop-color:#1A0F91"/>
					</linearGradient>
					<path style="fill:url(#SVGID_00000095339079293814203530000008586427437597028015_);" d="M1823.941,632.256
						c-110.582-30.318-225.264-36.029-340.484-16.991c-532.204,87.936-799.379,600.546-759.901,1198.297
						c6.914,104.697,95.007,182.345,187.541,166.041l328.732-57.919c87.143-15.354,147.889-100.917,141.523-199.52
						C1351.473,1259.333,1527.069,842.585,1823.941,632.256z"/>
				</g>
				<g>
					
						<linearGradient id="SVGID_00000147182883349627924380000004886279846743628712_" gradientUnits="userSpaceOnUse" x1="1197.2095" y1="1087.0061" x2="781.5428" y2="2047.6561" gradientTransform="matrix(0.9848 -0.1735 0.1735 0.9848 -83.3804 158.6002)">
						<stop  offset="0" style="stop-color:#09005D"/>
						<stop  offset="1" style="stop-color:#1A0F91"/>
					</linearGradient>
					<path style="fill:url(#SVGID_00000147182883349627924380000004886279846743628712_);" d="M1823.941,632.256
						c-110.582-30.318-225.264-36.029-340.484-16.991c-532.204,87.936-799.379,600.546-759.901,1198.297
						c6.914,104.697,95.007,182.345,187.541,166.041l328.732-57.919c87.143-15.354,147.889-100.917,141.523-199.52
						C1351.473,1259.333,1527.069,842.585,1823.941,632.256z"/>
				</g>
				
					<linearGradient id="SVGID_00000058557841468980635480000015240542929496428168_" gradientUnits="userSpaceOnUse" x1="967.5944" y1="1466.7723" x2="636.8734" y2="2068.501" gradientTransform="matrix(0.9848 -0.1735 0.1735 0.9848 -83.3804 158.6002)">
					<stop  offset="0" style="stop-color:#09005D"/>
					<stop  offset="1" style="stop-color:#1A0F91"/>
				</linearGradient>
				<path style="fill:url(#SVGID_00000058557841468980635480000015240542929496428168_);" d="M1196.908,1636.051
					c11.16,63.341-47.092,126.547-130.111,141.174c-83.018,14.627-159.365-24.864-170.526-88.205
					c-11.16-63.341,47.093-126.547,130.111-141.174C1109.401,1533.219,1185.748,1572.709,1196.908,1636.051z"/>
				
					<linearGradient id="SVGID_00000118370263801153377470000010527676225515821757_" gradientUnits="userSpaceOnUse" x1="-1722.6644" y1="459.3233" x2="-428.2406" y2="-2102.1782" gradientTransform="matrix(-0.9848 0.1735 -0.1735 -0.9848 655.3071 1763.0226)">
					<stop  offset="0" style="stop-color:#09005D"/>
					<stop  offset="1" style="stop-color:#1A0F91"/>
				</linearGradient>
				<path style="fill:url(#SVGID_00000118370263801153377470000010527676225515821757_);" d="M2322.824,1737.349
					c93.653,531.542-110.833,1108.273-445.214,1345.176c160.706-25.075,249.399-40.702,364.408-60.966
					c526.042-92.684,855.321-719.287,735.463-1399.555C2857.624,941.736,2334.019,465.404,1807.976,558.088
					c-115.009,20.264-364.92,41.618-490.29,86.385C1837.657,701.886,2229.171,1205.808,2322.824,1737.349z"/>
				
					<linearGradient id="SVGID_00000154407194097000757820000012789183765105302186_" gradientUnits="userSpaceOnUse" x1="679.2364" y1="1870.817" x2="2368.9639" y2="1870.817">
					<stop  offset="0" style="stop-color:#4F52FF"/>
					<stop  offset="1" style="stop-color:#4042E2"/>
				</linearGradient>
				<path style="fill:url(#SVGID_00000154407194097000757820000012789183765105302186_);" d="M1299.26,709.243L1299.26,709.243
					c1.501-0.265,2.988-0.518,4.494-0.764c99.734-16.352,201.731-3.107,303.156,39.367
					c99.669,41.738,194.768,109.793,282.658,202.274c89.114,93.77,166.267,207.865,229.315,339.114
					c65.708,136.788,113.161,286.38,141.042,444.618c28.166,159.857,36.6,317.853,25.068,469.599
					c-11.201,147.404-40.686,282.523-87.635,401.606c-46.76,118.604-108.694,215.707-184.081,288.608
					c-77.245,74.698-166.311,121.365-264.725,138.705c-99.404,17.514-203.012,4.501-307.948-38.677
					c-103.308-42.509-202.575-111.82-295.042-206.006c-93.974-95.722-175.149-211.29-241.27-343.494
					c-69.262-138.486-118.433-288.455-146.145-445.74c-27.349-155.222-31.876-311.776-13.454-465.309
					c17.318-144.335,53.89-279.174,108.701-400.773c52.328-116.091,120.557-215.972,197.312-288.845
					C1128.353,769.805,1211.979,724.625,1299.26,709.243L1299.26,709.243z M1288.739,649.542
					c-394.558,69.536-701.952,688.73-583.976,1358.317c118.482,672.459,609.732,1162.543,1054.308,1084.213
					s699.391-691.765,580.91-1364.225c-118.482-672.46-600.694-1152.203-1046.176-1079.167
					C1292.107,648.959,1290.432,649.244,1288.739,649.542L1288.739,649.542z"/>
				
					<linearGradient id="SVGID_00000097499828470895574380000007629131839495861406_" gradientUnits="userSpaceOnUse" x1="910.0356" y1="1529.0522" x2="1085.1885" y2="1187.965" gradientTransform="matrix(0.9848 -0.1735 0.1735 0.9848 -83.3804 158.6002)">
					<stop  offset="0" style="stop-color:#09005D"/>
					<stop  offset="1" style="stop-color:#1A0F91"/>
				</linearGradient>
				<path style="fill:url(#SVGID_00000097499828470895574380000007629131839495861406_);" d="M1290.501,1279.389
					c11.16,63.341-47.093,126.547-130.111,141.174c-83.019,14.627-159.366-24.864-170.526-88.205
					c-11.16-63.341,47.093-126.547,130.111-141.175C1202.994,1176.557,1279.341,1216.048,1290.501,1279.389z"/>
				
					<linearGradient id="SVGID_00000092451402058014451600000015083008336504081060_" gradientUnits="userSpaceOnUse" x1="1129.1329" y1="1224.7626" x2="1289.7275" y2="912.0256" gradientTransform="matrix(0.9848 -0.1735 0.1735 0.9848 -83.3804 158.6002)">
					<stop  offset="0" style="stop-color:#09005D"/>
					<stop  offset="1" style="stop-color:#1A0F91"/>
				</linearGradient>
				<path style="fill:url(#SVGID_00000092451402058014451600000015083008336504081060_);" d="M1448.315,958.389
					c9.784,55.532-49.584,112.407-132.602,127.034c-83.019,14.627-158.25-18.533-168.034-74.065
					c-9.784-55.532,49.583-112.407,132.602-127.035C1363.299,869.696,1438.53,902.857,1448.315,958.389z"/>
			</g>
			<g>
				
					<linearGradient id="SVGID_00000142873757203553693670000011734927399978424210_" gradientUnits="userSpaceOnUse" x1="-2171.8704" y1="1791.3765" x2="-857.8467" y2="1791.3765" gradientTransform="matrix(-0.9866 0.1629 0.1629 0.9866 678.954 183.7706)">
					<stop  offset="0" style="stop-color:#09005D"/>
					<stop  offset="1" style="stop-color:#1A0F91"/>
				</linearGradient>
				<path style="fill:url(#SVGID_00000142873757203553693670000011734927399978424210_);" d="M2147.965,2652.742l984.441-160.63
					c82.194-13.542,115.08-83.655,101.086-168.259L2999.954,911.938c-13.745-83.101-89.352-140.442-170.406-129.238
					L1825.335,912.213c-85.573,11.829-143.304,95.057-126.51,182.383l275.711,1433.581
					C1990.425,2610.793,2067.328,2666.028,2147.965,2652.742z"/>
				
					<linearGradient id="SVGID_00000096775731159071519890000011710712772972509594_" gradientUnits="userSpaceOnUse" x1="2013.2286" y1="2455.0117" x2="3374.019" y2="431.735">
					<stop  offset="0" style="stop-color:#4F52FF"/>
					<stop  offset="1" style="stop-color:#4042E2"/>
				</linearGradient>
				<path style="fill:url(#SVGID_00000096775731159071519890000011710712772972509594_);" d="M3137.91,2441.638
					c62.182-10.245,104.037-71.391,93.3-136.302L3003.533,928.817c-10.647-64.37-67.485-108.108-129.396-99.573L1910.52,952.781
					c-0.979,0.134-1.958,0.283-2.928,0.442c-30.645,5.049-57.224,22.421-74.843,48.915c-17.61,26.48-23.934,58.629-17.812,90.527
					l268.282,1397.727c12.278,63.969,70.118,106.132,131.679,95.989L3137.91,2441.638z"/>
				<g>
					<defs>
						<path id="SVGID_00000157297067273709498540000000444969854963038879_" d="M2196.61,2548.096
							c-35.808,0-67.06-27.423-74.313-65.205l-268.282-1397.725c-4.144-21.594,0.07-43.253,11.867-60.99
							c11.438-17.203,28.547-28.456,48.179-31.689c0.596-0.099,1.222-0.196,1.85-0.282l963.284-123.493
							c3.698-0.509,7.059-0.74,10.367-0.74c36.838,0,68.259,28.32,74.714,67.338l227.677,1376.518
							c3.509,21.221-1.067,42.418-12.884,59.683c-11.452,16.729-28.367,27.691-47.629,30.865l-922.708,144.698
							C2204.504,2547.77,2200.527,2548.096,2196.61,2548.096z"/>
					</defs>
					<clipPath id="SVGID_00000173141229888577362740000012754367965091076797_">
						<use xlink:href="#SVGID_00000157297067273709498540000000444969854963038879_"  style="overflow:visible;"/>
					</clipPath>
					<g style="clip-path:url(#SVGID_00000173141229888577362740000012754367965091076797_);">
						<path style="opacity:0.75;fill:#7D97F4;" d="M3019.531,950.381c-6.971-35.412-40.839-58.859-76.438-52.921l-277.606,46.306
							c-36.7,6.122-61.301,41.08-54.673,77.692l70.284,388.273c5.844,32.286,36.756,53.722,69.042,47.877l356.538-64.54
							L3019.531,950.381z"/>
						<path style="opacity:0.75;fill:#7D97F4;" d="M3241.412,2421.856c36.055-7.21,59.479-42.232,52.377-78.308l-39.131-198.774
							c-149.345,27.752-474.292,93.739-633.792,126.304c-22.938,4.683-38.111,26.587-34.452,49.71l24.736,156.323
							c5.924,37.439,41.812,62.427,78.981,54.994L3241.412,2421.856z"/>
						<path style="opacity:0.75;fill:#7D97F4;" d="M2476.193,983.259l84.761,468.249c3.906,21.576-10.419,42.232-31.994,46.138
							l-261.252,47.291c-9.359,1.694-19.015-0.028-27.211-4.853l-335.927-197.742c-10.38-6.11-17.424-16.601-19.151-28.521
							l-36.524-252.116c-3.199-22.081,12.421-42.461,34.574-45.112l548.942-65.682
							C2453.264,948.416,2472.452,962.594,2476.193,983.259z"/>
						<path style="opacity:0.75;fill:#7D97F4;" d="M1863.482,1476.606l357.842,180.997c5.911,2.99,12.665,3.872,19.146,2.501
							l244.446-51.707c24.042-5.086,43.165,20.092,31.814,41.888l-136.442,261.984c-2.979,5.72-3.972,12.268-2.823,18.614
							l42.448,234.5c2.861,15.806-7.632,30.938-23.438,33.799l-344.519,62.364c-15.423,2.792-30.285-7.141-33.604-22.46
							l-164.576-759.551L1863.482,1476.606z"/>
						<path style="opacity:0.75;fill:#7D97F4;" d="M2070.294,2346.591c85.882-13.442,264.616-39.587,344.604-51.238
							c23.01-3.351,44.926,10.883,51.231,33.265l61.896,219.714c8.018,28.464-12.337,57.047-41.857,58.778l-366.758,21.502
							c-22.949,1.345-43.41-14.35-48.056-36.864l-39.224-190.057C2026.782,2375.789,2044.163,2350.681,2070.294,2346.591z"/>
						<path style="opacity:0.75;fill:#7D97F4;" d="M2613.138,2159.826l570.242-147.615c24.308-6.292,39.5-30.44,34.65-55.076
							l-82.844-420.824c-5.092-25.869-30.3-42.62-56.121-37.289c-107.263,22.148-254.093,52.518-344.524,71.227
							c-14.552,3.01-26.559,12.798-33.209,26.087c-0.033,0.065-0.065,0.131-0.099,0.197l-158.4,313.903
							c-10.788,21.379-14.58,45.61-10.837,69.263l22.41,141.625C2558.782,2148.976,2586.034,2166.842,2613.138,2159.826z
							 M2741.075,1881.752l81.038-185.215c5.165-11.803,15.867-20.26,28.545-22.555l181.453-32.846
							c21.02-3.805,41.145,10.151,44.95,31.17l27.039,149.372c3.661,20.224-9.134,39.78-29.132,44.524l-289.53,68.689
							C2754.394,1942.255,2728.285,1910.983,2741.075,1881.752z"/>
					</g>
					
						<linearGradient id="SVGID_00000008107178052200015450000013632611286233246899_" gradientUnits="userSpaceOnUse" x1="2040.064" y1="1774.193" x2="2775.9382" y2="1346.1635">
						<stop  offset="0" style="stop-color:#FE7062"/>
						<stop  offset="1" style="stop-color:#FF928E"/>
					</linearGradient>
					
						<path style="clip-path:url(#SVGID_00000173141229888577362740000012754367965091076797_);fill:url(#SVGID_00000008107178052200015450000013632611286233246899_);" d="
						M2492.104,1904.273c-11.462,0-22.426-5.132-29.802-14.281c-8.985-11.134-11.032-26.206-5.342-39.331l126.388-291.671
						l-343.571,63.105c-9.172,1.693-18.616-0.023-26.613-4.804l-400.533-239.536c-10.353-6.189-13.726-19.6-7.534-29.953
						c6.189-10.356,19.607-13.72,29.953-7.534l398.81,238.502l351.42-64.546c13.959-2.583,28.122,2.747,36.949,13.854
						c8.834,11.111,10.812,26.101,5.168,39.121l-126.319,291.51l421.426-83.592l-9.572-110.7
						c-1.04-12.02,7.859-22.606,19.879-23.643c11.99-1.03,22.599,7.859,23.64,19.876l9.985,115.458
						c1.697,19.518-11.524,37.116-30.75,40.929l-436.071,86.496C2497.108,1904.03,2494.594,1904.273,2492.104,1904.273z"/>
				</g>
			</g>
		</g>
		<g>
			
				<linearGradient id="SVGID_00000065752945523766485780000008567372261515618745_" gradientUnits="userSpaceOnUse" x1="2790.5593" y1="1504.6725" x2="3154.8682" y2="1628.7488">
				<stop  offset="0" style="stop-color:#FE7062"/>
				<stop  offset="1" style="stop-color:#FF928E"/>
			</linearGradient>
			
				<circle style="fill:url(#SVGID_00000065752945523766485780000008567372261515618745_);" cx="2922.735" cy="1549.689" r="64.195"/>
			<g>
				
					<linearGradient id="SVGID_00000000921951870478945840000006276460069797151113_" gradientUnits="userSpaceOnUse" x1="1999.6288" y1="1804.5244" x2="3504.9978" y2="420.121">
					<stop  offset="0" style="stop-color:#E1473D"/>
					<stop  offset="1" style="stop-color:#E9605A"/>
				</linearGradient>
				<path style="fill:url(#SVGID_00000000921951870478945840000006276460069797151113_);" d="M3246.231,840.9
					c0,122.094-183.894,433.583-279.688,587.229c-7.434,11.923-23.447,19.164-53.097,19.164c-14.051,0-8.524-7.272-15.958-19.195
					c-95.801-153.66-279.669-465.119-279.669-587.198c0-159.203,140.675-288.263,314.207-288.263
					C3105.556,552.637,3246.231,681.697,3246.231,840.9z"/>
				
					<linearGradient id="SVGID_00000071548764616618156630000011610754509062188975_" gradientUnits="userSpaceOnUse" x1="2529.6433" y1="1199.847" x2="3911.6414" y2="395.9924">
					<stop  offset="0" style="stop-color:#FE7062"/>
					<stop  offset="1" style="stop-color:#FF928E"/>
				</linearGradient>
				<path style="fill:url(#SVGID_00000071548764616618156630000011610754509062188975_);" d="M3227.651,840.9
					c0,122.094-183.894,433.583-279.688,587.229c-7.434,11.923-20.492,19.17-34.542,19.164
					c-14.051-0.006-27.079-7.272-34.512-19.195c-95.801-153.66-279.669-465.119-279.669-587.199
					c0-159.203,140.675-288.263,314.207-288.263C3086.976,552.637,3227.651,681.697,3227.651,840.9z"/>
				
					<ellipse transform="matrix(0.7071 -0.7071 0.7071 0.7071 251.5946 2315.7146)" style="opacity:0.36;fill:#FFFFFF;" cx="2921.112" cy="854.156" rx="191.77" ry="191.77"/>
				<circle style="opacity:0.36;fill:#FFFFFF;" cx="2902.525" cy="835.307" r="139.431"/>
				<path style="fill:#FFFFFF;" d="M2913.444,1099.922c-129.929,0-235.631-105.702-235.631-235.631c0-3.711,3.009-6.72,6.72-6.72
					c3.711,0,6.72,3.009,6.72,6.72c0,122.516,99.674,222.19,222.19,222.19c122.519,0,222.193-99.674,222.193-222.19
					c0-122.519-99.674-222.193-222.193-222.193c-70.843,0-135.803,32.611-178.215,89.475c-2.215,2.97-6.422,3.593-9.408,1.368
					c-2.973-2.222-3.587-6.432-1.368-9.408c44.979-60.293,113.863-94.876,188.991-94.876c129.929,0,235.634,105.705,235.634,235.634
					S3043.373,1099.922,2913.444,1099.922z"/>
			</g>
		</g>
		<g>
			<g>
				<path style="opacity:0.75;fill:#7D97F4;" d="M1592.791,3241.434c3.488,8.7,12.353,14.146,21.743,13.516
					c36.953-2.479,135.14-13.916,198.66-66.413c4.194-3.468,4.549-9.323,1.606-13.309c-16.381,13.252-43.533,28.717-88.461,44.931
					C1657.288,3245.082,1616.436,3245.733,1592.791,3241.434z"/>
				
					<linearGradient id="SVGID_00000062888199994311327130000013381028692385818014_" gradientUnits="userSpaceOnUse" x1="655.0504" y1="3104.4385" x2="833.399" y2="3104.4385" gradientTransform="matrix(0.7989 0.6014 -0.6014 0.7989 2960.0752 268.1859)">
					<stop  offset="0" style="stop-color:#09005D"/>
					<stop  offset="1" style="stop-color:#1A0F91"/>
				</linearGradient>
				<path style="fill:url(#SVGID_00000062888199994311327130000013381028692385818014_);" d="M1600.651,3163.171
					c0,0-23.975,36.247-8.002,77.967c0.04,0.104,0.101,0.194,0.142,0.296c23.645,4.299,64.497,3.647,133.548-21.274
					c44.928-16.214,72.08-31.679,88.461-44.931c-0.931-1.26-2.176-2.344-3.755-3.094
					C1776.33,3155.686,1678.985,3117.556,1600.651,3163.171z"/>
			</g>
			<path style="fill:#7D97F4;" d="M1325.843,2555.137c4.395,9.94,231.208,150.655,231.208,150.655
				c-29.599,105.052-10.556,289.606,16.156,486.702c48.974,8.409,86.325-12.375,116.611-50.9l7.97-478.312
				c0.156-9.38-2.559-18.568-7.813-26.34c-65.154-96.369-171.35-210.554-282.243-326.779L1325.843,2555.137z"/>
			<g>
				<path style="opacity:0.75;fill:#7D97F4;" d="M610.456,2838.277c-6.998,5.622-9.922,16.278-7.313,26.169
					c10.268,38.926,41.878,141.298,102.546,197.69c4.006,3.723,9.306,2.825,12.218-1.187c-15.389-14.606-35.102-40.232-59.358-84.68
					C621.267,2907.956,611.778,2864.468,610.456,2838.277z"/>
				
					<linearGradient id="SVGID_00000145774333083579321110000013020036013055669407_" gradientUnits="userSpaceOnUse" x1="-1005.3281" y1="5529.084" x2="-809.4492" y2="5529.084" gradientTransform="matrix(-0.4128 0.9108 -0.9108 -0.4128 5333.3218 6041.4727)">
					<stop  offset="0" style="stop-color:#09005D"/>
					<stop  offset="1" style="stop-color:#1A0F91"/>
				</linearGradient>
				<path style="fill:url(#SVGID_00000145774333083579321110000013020036013055669407_);" d="M681.965,2829.607
					c0,0-37.553-17.702-71.276,8.454c-0.084,0.065-0.15,0.15-0.233,0.216c1.322,26.191,10.811,69.679,48.092,137.993
					c24.257,44.448,43.969,70.074,59.358,84.68c0.922-1.27,1.617-2.835,1.941-4.685
					C726.948,3015.602,739.726,2903.322,681.965,2829.607z"/>
			</g>
			<path style="fill:#7D97F4;" d="M1437.061,2340.986c-61.44,65.56-88.069,140.015-111.218,214.151l-158.937,245.117
				c-6.423,9.702-16.45,16.442-27.859,18.726l-435.486,87.158c-37.454-26.183-57.24-58.356-51.668-99.126
				c159.066-59.237,325.874-125.323,411.209-119.287c26.33-154.065,47.241-336.035,93.771-386.07l278.633,16.687L1437.061,2340.986z
				"/>
			
				<linearGradient id="SVGID_00000018232032658823266040000010985278652037815195_" gradientUnits="userSpaceOnUse" x1="1905.571" y1="3052.5542" x2="863.9087" y2="1137.2408">
				<stop  offset="0" style="stop-color:#4F52FF"/>
				<stop  offset="1" style="stop-color:#4042E2"/>
			</linearGradient>
			<path style="fill:url(#SVGID_00000018232032658823266040000010985278652037815195_);" d="M1260.175,2254.369l-76.326-34.571
				c-26.731-12.107-43.545-39.115-42.612-68.446l12.314-387.077c1.808-56.843,50.723-100.66,107.421-96.227l160.671,12.561
				c26.791,2.094,45.788,27.049,40.675,53.431l-100.84,520.328H1260.175z"/>
			
				<linearGradient id="SVGID_00000144333001201625643820000011368561465581062553_" gradientUnits="userSpaceOnUse" x1="1879.4041" y1="2507.3872" x2="1201.1725" y2="2835.9424" gradientTransform="matrix(0.6709 -0.7415 0.7415 0.6709 -1130.2404 1266.8853)">
				<stop  offset="0" style="stop-color:#FEBBBA"/>
				<stop  offset="1" style="stop-color:#FF928E"/>
			</linearGradient>
			<path style="fill:url(#SVGID_00000144333001201625643820000011368561465581062553_);" d="M1982.423,1627.119
				c-0.581,18.167-4.737,76.165-48.808,129.09c-38.532,46.273-85.842,62.565-104.219,67.862c0.807,11.632,4.281,37.703,23.28,62.229
				c9.762,12.603,20.542,20.819,28.669,25.941c45.17-24.355,72.218-52.593,88.982-75.319
				c60.366-81.837,69.622-203.712,69.624-203.724l0,0L1982.423,1627.119z"/>
			
				<linearGradient id="SVGID_00000000223279370248306470000011575338876751477648_" gradientUnits="userSpaceOnUse" x1="1590.0745" y1="2575.1899" x2="1012.1443" y2="2256.6709" gradientTransform="matrix(0.6709 -0.7415 0.7415 0.6709 -1130.2404 1266.8853)">
				<stop  offset="0" style="stop-color:#FE7062"/>
				<stop  offset="1" style="stop-color:#FF928E"/>
			</linearGradient>
			<path style="fill:url(#SVGID_00000000223279370248306470000011575338876751477648_);" d="M1633.778,1760.454l47.071,152.524
				c23.938,10.996,64.577,25.977,116.926,27.932c28.519,1.065,53.611-1.995,74.099-6.271c14.221-2.968,21.37-18.832,14.573-31.671
				c-4.186-7.908-8.305-16.602-12.138-26.074c-10.338-25.55-15.357-48.766-17.879-66.896
				C1782.213,1793.483,1707.995,1776.968,1633.778,1760.454z"/>
			
				<linearGradient id="SVGID_00000116917331486795445020000015978115733059410566_" gradientUnits="userSpaceOnUse" x1="1439.2109" y1="1827.1212" x2="869.0787" y2="2735.7678">
				<stop  offset="0" style="stop-color:#FE7062"/>
				<stop  offset="1" style="stop-color:#FF928E"/>
			</linearGradient>
			<path style="fill:url(#SVGID_00000116917331486795445020000015978115733059410566_);" d="M1358.398,1693.688
				c-69.105,3.845-177.577,66.765-239.5,152.693c-11.578,16.066,66.651,103.497,89.169,94.741
				c41.098-15.98,95.161-77.832,106.307-73.906c-14.76,166.908-64.257,279.508-110.392,354.075
				c-29.081,47.002-61.437,86.344-47.4,113.226c23.183,44.396,155.682,21.805,273.383-7.494l227.041-355.77
				c24.418-38.26,40.468-82.153,46.913-128.285l8.966-64.178C1712.884,1778.789,1508.975,1685.307,1358.398,1693.688z"/>
			
				<linearGradient id="SVGID_00000066481649807343065060000009504168901157128327_" gradientUnits="userSpaceOnUse" x1="1486.8549" y1="1819.5563" x2="1536.2908" y2="1678.5725">
				<stop  offset="0" style="stop-color:#FEBBBA"/>
				<stop  offset="1" style="stop-color:#FF928E"/>
			</linearGradient>
			<path style="fill:url(#SVGID_00000066481649807343065060000009504168901157128327_);" d="M1511.757,1599.192l-59.316,127.055
				c-3.618,7.751-2.542,17.118,2.771,23.595c14.363,17.506,48.286,45.942,107.293,25.563c6.506-2.246,11.187-8.506,12.176-15.892
				l15.447-115.39L1511.757,1599.192z"/>
			<g>
				
					<linearGradient id="SVGID_00000073682397916544126000000013138122769996131729_" gradientUnits="userSpaceOnUse" x1="-5117.21" y1="1525.7206" x2="-5363.0732" y2="1713.8434" gradientTransform="matrix(1 0 0 1 6781.9824 0)">
					<stop  offset="0" style="stop-color:#FEBBBA"/>
					<stop  offset="1" style="stop-color:#FF928E"/>
				</linearGradient>
				<path style="fill:url(#SVGID_00000073682397916544126000000013138122769996131729_);" d="M1651.841,1433.64
					c0,0,40.86,102.719,43.604,156.634c2.744,53.913,13.36,88.897-43.604,99.755c-56.964,10.856-104.951-20.198-130.949-73.903
					c0,0-40.733-82.753-31.595-116.643C1498.434,1465.594,1651.841,1433.64,1651.841,1433.64z"/>
				
					<linearGradient id="SVGID_00000106123164097823821160000018104877631853988015_" gradientUnits="userSpaceOnUse" x1="-5284.2666" y1="1369.5061" x2="-5055.1074" y2="1664.5477" gradientTransform="matrix(1 0 0 1 6781.9824 0)">
					<stop  offset="0" style="stop-color:#09005D"/>
					<stop  offset="1" style="stop-color:#1A0F91"/>
				</linearGradient>
				<path style="fill:url(#SVGID_00000106123164097823821160000018104877631853988015_);" d="M1476.944,1452.297
					c-36.355,39.143-37.359,64.019-34.066,77.734c3.142,13.086,14.278,27.473,36.55,56.245c4.112,5.312,11.731,19.733,24.788,37.149
					c2.834,3.78,4.729,7.542,5.873,11.224c4.894,0.115,8.497-0.513,10.787-1.154c1.821-0.51,3.045-2.327,2.93-4.38l-1.58-27.976
					c-19.006-17.469-14.757-55.453,12.657-63.812c-3.07-16.444-2.667-32.849,9.075-38.12
					c26.071-11.702,129.343-34.747,151.624-74.85c6.609-11.895,9.345-24.858,9.167-37.511
					C1625.014,1386.106,1536.337,1395.011,1476.944,1452.297z"/>
				
					<linearGradient id="SVGID_00000023969519691339673480000003922858985662112145_" gradientUnits="userSpaceOnUse" x1="-5143.8657" y1="1485.7797" x2="-5390.6377" y2="1674.5978" gradientTransform="matrix(1 0 0 1 6781.9824 0)">
					<stop  offset="0" style="stop-color:#FEBBBA"/>
					<stop  offset="1" style="stop-color:#FF928E"/>
				</linearGradient>
				<path style="fill:url(#SVGID_00000023969519691339673480000003922858985662112145_);" d="M1542.127,1587.369
					c0,0-15.589-65.616-42.47-47.218c-26.882,18.397,13.949,73.518,35.561,75.974L1542.127,1587.369z"/>
			</g>
			
				<linearGradient id="SVGID_00000036967045099627213580000009995645277853769607_" gradientUnits="userSpaceOnUse" x1="1235.4852" y1="2167.2092" x2="1332.9313" y2="1464.9263">
				<stop  offset="0" style="stop-color:#FEBBBA"/>
				<stop  offset="1" style="stop-color:#FF928E"/>
			</linearGradient>
			<path style="fill:url(#SVGID_00000036967045099627213580000009995645277853769607_);" d="M1377.571,2224.28
				c-18.239-18.255-57.975-25.914-76.534-28.588c-20.701-18.813-47.77-48.188-69.403-90.006
				c-41.309-79.851-24.89-164.333-30.463-164.333c-15.411,0-64.553-57.49-76.881-73.013c0,0-23.053,69.588-20.16,124.509
				c7.976,151.395,165.295,229.972,173.175,233.758c9.801,44.035,53.089,82.111,68.565,83.552
				C1353,2310.821,1401.812,2248.541,1377.571,2224.28z"/>
			
				<linearGradient id="SVGID_00000155130172900035016530000003687997924357632191_" gradientUnits="userSpaceOnUse" x1="1958.7162" y1="3023.6467" x2="917.0547" y2="1108.3348">
				<stop  offset="0" style="stop-color:#4F52FF"/>
				<stop  offset="1" style="stop-color:#4042E2"/>
			</linearGradient>
			<path style="fill:url(#SVGID_00000155130172900035016530000003687997924357632191_);" d="M1235.313,2075.413
				c39.775-12.412,168.642-401.925,101.553-385.779c24.814-13.388,63.346-8.151,104.03,0
				c-6.783,145.509-88.271,285.859-182.228,422.49L1235.313,2075.413z"/>
			<g>
				
					<linearGradient id="SVGID_00000142177910025229478240000010268631232676232840_" gradientUnits="userSpaceOnUse" x1="-3551.2451" y1="1568.0929" x2="-3329.9958" y2="2071.4846" gradientTransform="matrix(-0.9957 0.0928 0.0928 0.9957 -1724.126 539.2493)">
					<stop  offset="0" style="stop-color:#FEBBBA"/>
					<stop  offset="1" style="stop-color:#FF928E"/>
				</linearGradient>
				<path style="fill:url(#SVGID_00000142177910025229478240000010268631232676232840_);" d="M2015.292,1644.816
					c2.262,5.384-17.156,15.714-31.168-5.863c-1.429-10.834-12.384-56.796-6.713-66.26c30.205-50.4,91.778-115.789,91.778-115.789
					c12.381,10.131,4.064,21.992,4.064,21.992l-29.384,36.936c7.954,11.667,17.224,21.275,22.503,35.792
					c3.997,10.993,3.318,23.203-1.418,33.988c-4.753,10.824-11.3,24.929-17.692,36.086
					C2035.165,1642.813,2015.292,1644.816,2015.292,1644.816z"/>
				
					<linearGradient id="SVGID_00000037688301208833277590000013284876860511557256_" gradientUnits="userSpaceOnUse" x1="2316.9004" y1="2005.1505" x2="2373.6169" y2="2005.1505" gradientTransform="matrix(0.9538 -0.3004 0.3004 0.9538 -817.3615 373.0545)">
					<stop  offset="0" style="stop-color:#F9B776"/>
					<stop  offset="1" style="stop-color:#F47960"/>
				</linearGradient>
				<path style="fill:url(#SVGID_00000037688301208833277590000013284876860511557256_);" d="M2028.245,1619.968l-3.347-0.282
					c0.174-2.074,4.354-50.941,10.035-62.459c2.402-4.876,3.088-8.742,2.034-11.485c-0.725-1.887-2.326-3.393-4.886-4.587
					l-26.199,26.767l-6.865,25.474l-3.242-0.873l7.088-26.321l28.407-29.021l1.04,0.414c4.072,1.624,6.622,3.895,7.793,6.943
					c1.424,3.705,0.715,8.341-2.159,14.173C2032.544,1569.667,2028.288,1619.466,2028.245,1619.968z"/>
			</g>
		</g>
	</g>
</g>
</svg>
