<svg xmlns="http://www.w3.org/2000/svg" version="1.1" xmlns:xlink="http://www.w3.org/1999/xlink"
    width="512" height="512" x="0" y="0" viewBox="0 0 511.225 511.225"
    style="enable-background:new 0 0 512 512" xml:space="preserve"><g><circle cx="385.257" cy="386.225" r="110" style="stroke-width: 24; stroke-miterlimit: 10;" fill="none" stroke="#000000" stroke-width="24" stroke-miterlimit="10" data-original="#000000"></circle><path
    d="m329.601 383.073 42.334 37.641 68.979-68.978M275.647 395.492c-20.072 6.955-41.628 10.733-64.067 10.733-108.034 0-195.612-87.579-195.612-195.612S103.546 15 211.58 15s195.612 87.579 195.612 195.612c0 23.203-4.04 45.463-11.455 66.114"
    style="stroke-width: 24; stroke-miterlimit: 10;" fill="none" stroke="#000000" stroke-width="24"
    stroke-miterlimit="10" data-original="#000000"></path><path
    d="M264.069 189.047v-20.055c0-29.876-24.22-54.096-54.096-54.096-29.876 0-54.096 24.22-54.096 54.096v1.628a71.98 71.98 0 0 0 11.331 38.766 71.982 71.982 0 0 1 1.38 75.284l-21.119 28.696 3.811 5.112s34.816-12.688 65.247-2.044a94.751 94.751 0 0 0 52.417.39M240.942 227.36H109.039"
    style="stroke-width: 24; stroke-miterlimit: 10;" fill="none" stroke="#000000" stroke-width="24"
    stroke-miterlimit="10" data-original="#000000"></path></g></svg>