<svg width="35" height="31" viewBox="0 0 35 31" fill="none" xmlns="http://www.w3.org/2000/svg">
    <path
        d="M32.0833 1.9375H2.91667C1.30642 1.9375 0 3.23926 0 4.84375V5.8125H35V4.84375C35 3.23926 33.6936 1.9375 32.0833 1.9375ZM0 26.1562C0 27.7607 1.30642 29.0625 2.91667 29.0625H32.0833C33.6936 29.0625 35 27.7607 35 26.1562V7.75H0V26.1562ZM21.3889 12.1094C21.3889 11.843 21.6076 11.625 21.875 11.625H30.625C30.8924 11.625 31.1111 11.843 31.1111 12.1094V13.0781C31.1111 13.3445 30.8924 13.5625 30.625 13.5625H21.875C21.6076 13.5625 21.3889 13.3445 21.3889 13.0781V12.1094ZM21.3889 15.9844C21.3889 15.718 21.6076 15.5 21.875 15.5H30.625C30.8924 15.5 31.1111 15.718 31.1111 15.9844V16.9531C31.1111 17.2195 30.8924 17.4375 30.625 17.4375H21.875C21.6076 17.4375 21.3889 17.2195 21.3889 16.9531V15.9844ZM21.3889 19.8594C21.3889 19.593 21.6076 19.375 21.875 19.375H30.625C30.8924 19.375 31.1111 19.593 31.1111 19.8594V20.8281C31.1111 21.0945 30.8924 21.3125 30.625 21.3125H21.875C21.6076 21.3125 21.3889 21.0945 21.3889 20.8281V19.8594ZM10.6944 11.625C12.8394 11.625 14.5833 13.3627 14.5833 15.5C14.5833 17.6373 12.8394 19.375 10.6944 19.375C8.54948 19.375 6.80556 17.6373 6.80556 15.5C6.80556 13.3627 8.54948 11.625 10.6944 11.625ZM4.07726 23.9887C4.58767 22.4326 6.05208 21.3125 7.77778 21.3125H8.27604C9.02344 21.6213 9.83767 21.7969 10.6944 21.7969C11.5512 21.7969 12.3715 21.6213 13.1128 21.3125H13.6111C15.3368 21.3125 16.8012 22.4326 17.3116 23.9887C17.5061 24.5881 16.9957 25.1875 16.3637 25.1875H5.02517C4.39323 25.1875 3.88281 24.582 4.07726 23.9887Z"
        fill="#2E78FE" />
</svg>
